<svg width="24" height="24" viewBox="0 0 24 24" fill="none" xmlns="http://www.w3.org/2000/svg">
<path d="M23 11.9997C23 17.5553 18.8816 22.1481 13.5319 22.8936C13.0315 22.9633 12.5197 22.9994 12.0003 22.9994C11.4005 22.9994 10.8121 22.9512 10.2382 22.8588C4.99994 22.0157 1 17.4748 1 11.9997C1 5.92471 5.92471 1 11.9997 1C18.0747 1 22.9994 5.92471 22.9994 11.9997H23Z" fill="#2F2F2F"/>
<path d="M13.5319 9.83224V12.2284H16.4962L16.0268 15.4569H13.5319V22.8943C13.0315 22.964 12.5197 23.0001 12.0003 23.0001C11.4005 23.0001 10.812 22.9519 10.2382 22.8594V15.4569H7.50439V12.2284H10.2382V9.29702C10.2382 7.47788 11.7127 6.00269 13.5325 6.00269V6.00459C13.5376 6.00459 13.5426 6.00269 13.5477 6.00269H16.4968V8.79409H14.57C13.9968 8.79409 13.5325 9.25838 13.5325 9.83161L13.5319 9.83224Z" fill="#FEFEFE"/>
</svg>
