<svg width="24" height="24" viewBox="0 0 24 24" fill="none" xmlns="http://www.w3.org/2000/svg">
<path d="M23 12C23 17.5557 18.8815 22.1487 13.5316 22.8942C13.0312 22.9639 12.5194 23 12 23C11.4001 23 10.8117 22.9519 10.2378 22.8594C5.00069 22.0163 1 17.4747 1 11.9994C1 5.92485 5.92485 1 12 1C18.0751 1 23 5.92485 23 12Z" fill="#2F2F2F"/>
<path d="M15.4452 5.39661H8.55552C6.65209 5.39661 5.104 6.94469 5.104 8.84812V15.1513C5.104 17.0547 6.65209 18.6028 8.55552 18.6028H15.4452C17.3487 18.6028 18.8968 17.0547 18.8968 15.1513V8.84812C18.8968 6.94469 17.3487 5.39661 15.4452 5.39661ZM6.32144 8.84812C6.32144 7.61612 7.32352 6.61404 8.55552 6.61404H15.4452C16.6772 6.61404 17.6793 7.61612 17.6793 8.84812V15.1513C17.6793 16.3833 16.6772 17.3854 15.4452 17.3854H8.55552C7.32352 17.3854 6.32144 16.3833 6.32144 15.1513V8.84812Z" fill="#FEFEFE"/>
<path d="M12.0001 15.2108C13.7705 15.2108 15.2109 13.7704 15.2109 12C15.2109 10.2296 13.7705 8.78918 12.0001 8.78918C10.2297 8.78918 8.78931 10.2296 8.78931 12C8.78931 13.7704 10.2297 15.2108 12.0001 15.2108ZM12.0001 10.0073C13.0991 10.0073 13.9929 10.901 13.9929 12C13.9929 13.099 13.0991 13.9927 12.0001 13.9927C10.9011 13.9927 10.0074 13.099 10.0074 12C10.0074 10.901 10.9011 10.0073 12.0001 10.0073Z" fill="#FEFEFE"/>
<path d="M15.5086 9.30729C15.9855 9.30729 16.3738 8.919 16.3738 8.44204C16.3738 7.96507 15.9855 7.57678 15.5086 7.57678C15.0316 7.57678 14.6433 7.96507 14.6433 8.44204C14.6433 8.919 15.0316 9.30729 15.5086 9.30729Z" fill="#FEFEFE"/>
</svg>
