<svg width="24" height="24" viewBox="0 0 24 24" fill="none" xmlns="http://www.w3.org/2000/svg">
<path d="M17.3824 8.9226V11.0242C17.0144 10.9888 16.5381 10.9052 16.0092 10.7113C15.3194 10.4586 14.8057 10.1128 14.47 9.84484V14.0937L14.4618 14.0804C14.4675 14.1646 14.47 14.2502 14.47 14.3369C14.47 16.4474 12.7535 18.1646 10.6423 18.1646C8.53122 18.1646 6.8147 16.4468 6.8147 14.3369C6.8147 12.2271 8.53122 10.5086 10.6423 10.5086C10.8488 10.5086 11.0515 10.5251 11.2498 10.5568V12.6286C11.0591 12.5602 10.8552 12.5235 10.6423 12.5235C9.64284 12.5235 8.82892 13.3368 8.82892 14.3369C8.82892 15.3371 9.64284 16.1504 10.6423 16.1504C11.6419 16.1504 12.4558 15.3364 12.4558 14.3369C12.4558 14.2996 12.4552 14.2622 12.4526 14.2248V5.96777H14.5536C14.5612 6.14576 14.5688 6.32501 14.5758 6.503C14.5897 6.85327 14.7145 7.18961 14.9318 7.46514C15.187 7.78881 15.5633 8.16505 16.0928 8.46528C16.5881 8.74588 17.053 8.86623 17.3824 8.92323V8.9226Z" fill="#2F2F2F"/>
</svg>
