<svg width="24" height="24" viewBox="0 0 24 24" fill="none" xmlns="http://www.w3.org/2000/svg">
<path d="M14.0437 15.256C11.194 15.2553 8.87515 12.9365 8.87451 10.0874C8.87578 9.36533 9.46294 8.77753 10.1844 8.77753C10.2585 8.77753 10.332 8.78386 10.4016 8.79653C10.5562 8.82187 10.7025 8.87444 10.8381 8.95298C10.8577 8.96438 10.871 8.98338 10.8742 9.00555L11.175 10.9039C11.1788 10.926 11.1719 10.9482 11.1573 10.9647C10.9907 11.149 10.7785 11.2814 10.5429 11.3479L10.4295 11.3802L10.4726 11.4904C10.8615 12.4791 11.652 13.2703 12.6414 13.6592L12.7516 13.7022L12.7832 13.5882C12.8498 13.352 12.9821 13.1398 13.1665 12.9738C13.1798 12.9618 13.1975 12.9548 13.2159 12.9548C13.2197 12.9548 13.2241 12.9548 13.2279 12.9561L15.1256 13.257C15.1484 13.2608 15.1667 13.2734 15.1788 13.2931C15.2567 13.4286 15.3093 13.5756 15.3352 13.7295C15.3473 13.7985 15.3536 13.8707 15.3536 13.9467C15.3536 14.6682 14.7658 15.2553 14.0437 15.2566V15.256Z" fill="#2F2F2F"/>
<path d="M19.097 11.3745C18.9431 9.63774 18.1476 8.02699 16.8567 6.83936C15.5582 5.64413 13.8727 4.98602 12.1106 4.98602C8.24304 4.98602 5.09629 8.13277 5.09629 12.0003C5.09629 13.2982 5.45416 14.5631 6.13191 15.6646L4.62061 19.0108L9.46107 18.4953C10.3029 18.8398 11.1941 19.0146 12.1106 19.0146C12.3519 19.0146 12.599 19.002 12.8466 18.9766C13.0651 18.9532 13.2856 18.919 13.5028 18.8753C16.742 18.221 19.1065 15.346 19.1249 12.0377V12.0003C19.1249 11.7894 19.1154 11.5791 19.0964 11.3752L19.097 11.3745ZM9.64666 17.0264L6.96863 17.3114L7.76862 15.5398L7.609 15.3251C7.59697 15.3092 7.58557 15.2934 7.57227 15.2757C6.87806 14.3173 6.51131 13.1848 6.51131 11.9997C6.51131 8.91186 9.02339 6.40041 12.1106 6.40041C15.0034 6.40041 17.4546 8.65723 17.6909 11.5379C17.7036 11.6925 17.7099 11.8477 17.7099 12.0003C17.7099 12.044 17.7093 12.0871 17.708 12.1327C17.6484 14.7157 15.8439 16.9092 13.3198 17.4679C13.1272 17.5109 12.9296 17.5432 12.7326 17.5648C12.528 17.5882 12.3184 17.5996 12.11 17.5996C11.3683 17.5996 10.6474 17.4558 9.9659 17.1721C9.89052 17.1417 9.81641 17.1094 9.74674 17.0758L9.64539 17.027L9.64666 17.0264Z" fill="#2F2F2F"/>
</svg>
