<svg width="24" height="24" viewBox="0 0 24 24" fill="none" xmlns="http://www.w3.org/2000/svg">
<path d="M23 11.9997C23 17.5553 18.8816 22.1481 13.5319 22.8936C13.0315 22.9633 12.5197 22.9994 12.0003 22.9994C11.4005 22.9994 10.8121 22.9512 10.2382 22.8588C4.99994 22.0163 1 17.4748 1 11.9997C1 5.92471 5.92471 1 11.9997 1C18.0747 1 22.9994 5.92471 22.9994 11.9997H23Z" fill="#2F2F2F"/>
<path d="M14.0437 15.2559C11.194 15.2553 8.87515 12.9364 8.87451 10.0873C8.87578 9.36527 9.46294 8.77747 10.1844 8.77747C10.2585 8.77747 10.332 8.7838 10.4016 8.79647C10.5562 8.82181 10.7025 8.87438 10.8381 8.95292C10.8577 8.96432 10.871 8.98332 10.8742 9.00549L11.175 10.9038C11.1788 10.926 11.1719 10.9481 11.1573 10.9646C10.9907 11.1489 10.7785 11.2813 10.5429 11.3478L10.4295 11.3801L10.4726 11.4903C10.8615 12.4791 11.652 13.2702 12.6414 13.6591L12.7516 13.7022L12.7832 13.5882C12.8498 13.3519 12.9821 13.1397 13.1665 12.9738C13.1798 12.9617 13.1975 12.9548 13.2159 12.9548C13.2197 12.9548 13.2241 12.9548 13.2279 12.956L15.1256 13.2569C15.1484 13.2607 15.1667 13.2734 15.1788 13.293C15.2567 13.4285 15.3093 13.5755 15.3352 13.7294C15.3473 13.7985 15.3536 13.8707 15.3536 13.9467C15.3536 14.6681 14.7658 15.2553 14.0437 15.2566V15.2559Z" fill="#FEFEFE"/>
<path d="M19.097 11.3745C18.9431 9.63768 18.1476 8.02693 16.8567 6.8393C15.5582 5.64407 13.8727 4.98596 12.1106 4.98596C8.24304 4.98596 5.09629 8.13271 5.09629 12.0003C5.09629 13.2981 5.45416 14.563 6.13191 15.6645L4.62061 19.0108L9.46107 18.4952C10.3029 18.8398 11.1941 19.0146 12.1106 19.0146C12.3519 19.0146 12.599 19.0019 12.8466 18.9766C13.0651 18.9531 13.2856 18.9189 13.5028 18.8752C16.742 18.2209 19.1065 15.3459 19.1249 12.0376V12.0003C19.1249 11.7893 19.1154 11.5791 19.0964 11.3751L19.097 11.3745ZM9.64666 17.0263L6.96863 17.3114L7.76862 15.5397L7.609 15.325C7.59697 15.3092 7.58557 15.2933 7.57227 15.2756C6.87806 14.3173 6.51131 13.1847 6.51131 11.9996C6.51131 8.91179 9.02339 6.40035 12.1106 6.40035C15.0034 6.40035 17.4546 8.65716 17.6909 11.5379C17.7036 11.6924 17.7099 11.8476 17.7099 12.0003C17.7099 12.044 17.7093 12.087 17.708 12.1326C17.6484 14.7157 15.8439 16.9091 13.3198 17.4678C13.1272 17.5109 12.9296 17.5432 12.7326 17.5647C12.528 17.5882 12.3184 17.5996 12.11 17.5996C11.3683 17.5996 10.6474 17.4558 9.9659 17.172C9.89052 17.1416 9.81641 17.1093 9.74674 17.0757L9.64539 17.027L9.64666 17.0263Z" fill="#FEFEFE"/>
</svg>
