<svg width="151" height="150" viewBox="0 0 151 150" fill="none" xmlns="http://www.w3.org/2000/svg">
<g clip-path="url(#clip0_2001_3968)">
<path d="M0.333984 16C0.333984 7.16345 7.49743 0 16.334 0H134.334C143.171 0 150.334 7.16344 150.334 16V134C150.334 142.837 143.171 150 134.334 150H16.334C7.49743 150 0.333984 142.837 0.333984 134V16Z" fill="#FDE6F2"/>
<path d="M46.8582 60.56C45.8282 61.4 35.5632 61.98 33.4832 62.425C34.3382 66.005 34.5482 73.735 37.3032 76.255C40.2232 78.93 49.4582 78.265 53.5082 78.74C54.4382 78.85 57.0032 79.035 57.1782 80.025C57.6332 82.545 52.5932 80.745 51.2082 81.22C51.9282 91.295 53.5182 101.43 54.0582 111.51C54.1582 113.35 54.0782 115.075 51.9482 113.62L48.6782 80.91C47.1182 81.135 40.4632 79.76 39.5832 80.23C37.2732 81.465 38.2282 89.665 31.9232 87.21C26.4732 85.085 30.2782 77.84 33.7782 75.67C32.9482 71.705 30.9332 66.01 30.7982 62.085C30.7832 61.635 30.7182 61.27 31.0182 60.87C32.0982 59.435 43.2332 59.575 45.1732 58.345C47.1132 57.115 47.2532 50.545 52.6032 49.47C55.7782 48.835 67.7532 48.945 71.2282 49.32C73.6332 49.58 76.4532 50.97 78.0882 52.74C79.3082 54.065 84.7082 64.97 84.8782 66.535C85.0382 67.965 84.0332 68.735 82.9282 67.745C81.1682 66.16 78.8832 57.5 76.5182 54.66C75.3732 53.285 73.3482 52.08 71.5532 51.825C69.0382 51.465 54.7182 51.41 52.6132 51.96C51.9432 52.135 51.3682 52.585 50.8982 53.085C49.6032 54.46 47.8432 59.76 46.8532 60.56H46.8582ZM35.1632 78.07C33.0982 78.325 29.9682 84.02 32.7582 84.955C33.2982 85.135 34.0782 85.285 34.5632 84.955C34.8132 84.785 37.3032 79.86 37.3482 79.56C37.4482 78.92 35.7882 77.995 35.1632 78.07Z" fill="#E8007F"/>
<path d="M39.158 122.33H77.263C77.413 122.33 79.518 121.035 79.798 120.785C81.673 119.11 89.603 108.955 90.993 106.635C91.488 105.805 92.148 105.05 92.303 104.05C92.918 100.165 89.348 96.8249 85.498 97.5999C83.018 98.0999 80.118 102.395 79.018 102.5C76.903 102.7 74.743 95.8049 68.943 98.0599C68.363 98.2849 67.438 98.875 67.023 99.33C61.723 105.105 73.163 112.59 75.053 117.49C75.618 118.95 74.178 119.7 72.883 118.57C72.093 117.88 64.138 107.245 63.803 106.385C60.808 98.66 68.853 92.235 75.923 96.745C76.778 97.29 78.413 99.3049 79.043 99.3049C79.568 99.3049 82.073 96.5349 83.463 95.9149C90.823 92.6249 97.503 100.495 93.558 107.43C92.433 109.405 81.518 122.715 79.983 123.63C79.598 123.86 77.483 124.82 77.273 124.82H37.573C37.533 124.82 37.043 124.325 37.043 124.29V92.385C37.043 91.68 39.168 91.68 39.168 92.385V122.34L39.158 122.33Z" fill="#E8007F"/>
<path d="M118.558 48.6L79.0382 27.71L39.8782 48.43C38.3032 49.415 39.7532 52.84 38.9982 53.93C38.5182 54.625 37.0332 54.195 37.0332 53.735V47.175L79.0432 24.99L117.863 45.57C118.363 45.975 121.048 47.27 121.048 47.705V73.225C121.048 74.355 118.568 73.975 118.568 73.225V48.59L118.558 48.6Z" fill="#E8007F"/>
<path d="M105.089 94.3299C104.949 94.4749 104.709 97.8949 104.724 98.3849C104.809 100.945 106.139 104.34 107.909 106.22C108.954 107.33 113.499 109.205 111.669 110.67C110.184 111.86 105.834 107.62 104.939 106.355C104.044 105.09 102.844 102.4 102.639 100.855C102.459 99.4999 102.999 94.2399 102.809 93.9549C102.359 93.2799 98.1586 93.2749 98.7286 91.3649C99.2386 89.6599 105.329 92.1349 107.049 92.1999C110.189 92.3199 113.669 91.2299 115.169 88.2849C115.654 87.3349 116.359 85.2999 116.084 84.3049C116.034 84.1299 114.279 82.7199 113.664 81.6749C112.759 80.1299 112.169 77.0799 111.089 76.0949C109.349 74.4999 103.774 74.9699 102.929 73.9749C102.034 72.9149 101.459 65.9699 101.184 64.1999C95.8936 66.3549 92.3336 71.3599 90.2886 76.5199C89.5736 78.3149 87.6136 86.7149 87.2836 87.1549C86.6636 87.9849 85.1386 87.6199 84.9886 86.3099C84.8486 85.0699 87.1136 78.0149 87.7086 76.4199C89.4086 71.8999 91.6636 68.0899 95.3486 64.9149C96.1986 64.1849 101.274 60.5599 102.024 60.7049C103.464 60.9749 103.349 65.6449 103.669 65.9699C103.989 66.2949 110.659 62.2249 112.019 64.1749C112.859 65.3799 110.729 71.8499 111.149 73.1749C111.269 73.5549 113.324 74.8099 113.894 75.7749C114.774 77.2549 114.834 79.2599 115.919 80.8399C116.544 81.7449 118.729 83.0899 118.854 83.5849C119.214 85.0399 117.264 89.8149 116.219 91.1099C115.334 92.2099 112.234 94.3299 110.934 94.3299C110.104 94.3299 105.289 94.1199 105.084 94.3299H105.089ZM109.339 66.3249C109.029 65.9749 105.209 67.9549 104.774 68.6699C104.314 69.4199 104.389 71.7299 105.069 72.1949C105.234 72.3049 108.849 72.8499 108.989 72.7049C109.214 72.4749 109.554 66.5649 109.344 66.3249H109.339Z" fill="#E8007F"/>
<path d="M118.558 97.6951C118.843 96.7951 120.753 96.4701 121.038 98.7551C121.558 102.94 121.678 119.24 121.058 123.23C120.983 123.725 120.983 124.145 120.548 124.49C118.958 125.745 91.0476 124.195 86.8376 124.81C85.1426 124.445 85.7126 122.33 86.8376 122.33H118.563V97.6951H118.558Z" fill="#E8007F"/>
<path d="M68.4686 60.69C68.8986 60.59 69.1686 60.7 69.4936 60.97C70.5636 61.87 70.6786 75.925 71.0636 78.545C71.3986 80.835 72.0086 83.505 74.5886 84.235C76.0436 84.645 79.9486 83.615 79.1686 85.94C78.1736 88.895 70.4286 85.86 69.2686 81.76C68.3186 78.41 67.5236 67.115 67.4936 63.315C67.4886 62.455 67.3786 60.945 68.4686 60.69Z" fill="#E8007F"/>
<path d="M57.4778 58.2899C59.4078 59.7149 57.7778 63.4099 55.1178 62.2499C52.0728 60.9249 54.8528 56.3499 57.4778 58.2899Z" fill="#E8007F"/>
<path d="M105.669 78.115C108.564 77.815 108.904 82.455 105.914 82.54C103.169 82.615 103.069 78.385 105.669 78.115Z" fill="#E8007F"/>
</g>
<defs>
<clipPath id="clip0_2001_3968">
<path d="M0.333984 16C0.333984 7.16345 7.49743 0 16.334 0H134.334C143.171 0 150.334 7.16344 150.334 16V134C150.334 142.837 143.171 150 134.334 150H16.334C7.49743 150 0.333984 142.837 0.333984 134V16Z" fill="white"/>
</clipPath>
</defs>
</svg>
