<svg width="151" height="150" viewBox="0 0 151 150" fill="none" xmlns="http://www.w3.org/2000/svg">
<g clip-path="url(#clip0_2001_4040)">
<path d="M0.667969 16C0.667969 7.16345 7.83141 0 16.668 0H134.668C143.505 0 150.668 7.16344 150.668 16V134C150.668 142.837 143.505 150 134.668 150H16.668C7.83142 150 0.667969 142.837 0.667969 134V16Z" fill="#FCF9E6"/>
<path d="M123.907 66.5999C123.627 67.0549 120.517 67.3049 121.492 68.5299C123.282 70.7749 135.837 75.2999 138.822 77.5899C139.592 78.4549 139.507 80.1449 138.197 80.2949C136.142 80.5299 119.672 70.0049 116.207 69.0749C114.842 66.8749 118.852 66.1999 118.412 65.4249C118.187 65.0299 111.627 61.8299 110.402 61.0599C106.767 58.7949 101.107 53.6099 97.0321 53.6299C91.4321 53.6599 81.4571 62.7799 76.1021 65.2649C79.6171 73.9899 83.3971 64.0849 86.4521 62.7549C87.8521 62.1499 89.2621 62.4649 88.7471 64.2099C88.2671 65.8299 81.4921 70.8999 81.5021 71.4099C81.5371 72.6449 86.2771 72.5999 87.2921 72.2599C89.3471 71.5749 90.0221 66.4449 92.6221 67.6899C95.2221 68.9349 88.4771 74.5849 89.3321 75.3249C90.6221 76.4399 97.2421 74.2599 98.8221 73.0699C100.307 71.9499 102.212 67.9699 103.882 69.1149C105.857 70.4749 101.697 74.6149 100.432 75.5099C97.3821 77.6649 89.1971 79.3849 86.0421 77.1749C85.1421 76.5449 85.3871 75.4749 84.9371 75.3149C83.7021 74.8699 81.8321 75.1349 79.9821 74.1699C77.4521 72.8499 78.3171 72.0499 77.5521 71.2399C75.8771 69.4699 70.9721 66.2599 74.0971 63.1899C75.8021 61.5149 88.7721 53.4699 91.2621 52.3149C100.692 47.9499 104.772 54.4399 111.887 58.7599C115.582 61.0049 119.517 62.8549 123.562 64.4049C124.077 64.8299 124.187 66.1549 123.902 66.6099L123.907 66.5999Z" fill="#E3C408"/>
<path d="M97.1723 93.8799C98.1673 92.8799 94.8023 89.2749 93.7673 88.8299C89.4823 86.9949 79.7623 88.5549 75.6323 86.7599C74.3573 86.2049 74.2823 84.6449 75.1823 84.3799C76.5923 83.9599 86.9473 84.9399 89.1223 85.2249C93.1023 85.7449 96.3523 85.9249 98.7473 89.6199C100.037 91.6149 101.447 96.3549 98.2173 96.7849C94.0423 97.3399 77.6723 97.2999 73.6423 96.5799C70.3773 95.9949 56.2473 90.7499 53.0273 89.1549C48.1073 86.7149 39.5923 76.9399 35.0073 76.6649C31.2223 76.5099 15.2273 83.0449 12.8973 82.2999C12.1023 82.0449 11.8873 80.3399 12.4673 79.8149C19.2623 78.7099 30.4623 73.0199 37.0673 74.1899C41.3923 74.9549 49.3923 84.0899 54.0073 86.5299C55.5673 87.3549 72.8123 93.8849 73.8723 93.8849H97.1723V93.8799Z" fill="#E3C408"/>
<path d="M12.283 58.47C12.733 57.75 26.043 57.725 28.118 57.605C34.633 57.235 45.748 55.34 51.618 57.165C57.488 58.99 59.683 63.34 63.768 66.87C66.968 69.635 74.348 73.38 74.723 77.77C75.098 82.16 70.813 84.865 66.728 83.7C65.068 83.225 53.618 74.325 51.808 72.64C49.913 70.875 49.308 69.465 52.613 69.755L67.363 80.995C69.478 81.76 72.153 80.35 72.008 78.025C71.873 75.825 62.948 69.865 60.873 68.105C54.493 62.685 54.613 59.105 44.573 59.22C35.448 58.855 22.318 61.975 13.643 60.905C12.293 60.74 11.598 59.56 12.278 58.465L12.283 58.47Z" fill="#E3C408"/>
<path d="M114.914 89.755C116.579 89.57 116.194 86.24 118.619 87.475C119.139 87.74 125.474 95.365 126.204 96.395C126.934 97.425 128.119 99.155 126.159 99.61C124.459 100.01 118.849 91.395 117.994 91.415C117.299 91.43 115.904 96.775 113.764 94.605C113.364 94.195 110.359 85.995 109.204 84.11C108.379 82.76 104.504 78.43 104.334 77.805C103.864 76.075 105.734 75.97 107.044 76.79C109.914 78.59 113.714 86.485 114.909 89.75L114.914 89.755Z" fill="#E3C408"/>
<path d="M48.8138 35.38C49.5688 35.165 49.7938 35.385 50.3938 35.71C50.9938 36.035 57.2588 42.61 57.4188 43.14C57.9838 45.04 56.3238 45.195 54.8888 44.415C54.4638 44.185 48.3288 38.025 48.0838 37.61C47.5138 36.65 47.6888 35.705 48.8188 35.385L48.8138 35.38Z" fill="#E3C408"/>
<path d="M92.5237 35.385C93.6937 35.055 94.7387 35.945 94.5137 37.01C94.4087 37.51 88.1087 44.085 87.5087 44.41C86.0687 45.19 84.4137 45.035 84.9787 43.135C85.1837 42.45 91.9587 35.54 92.5237 35.38V35.385Z" fill="#E3C408"/>
<path d="M48.2125 114.39C47.8425 114.025 47.6675 113.38 47.8825 112.865C48.0975 112.35 55.5675 105.01 56.1425 105.005C57.0675 104.995 57.8475 106.085 57.3925 107.065C57.1025 107.69 49.7675 114.815 49.1975 114.83C48.9425 114.84 48.4075 114.58 48.2125 114.385V114.39Z" fill="#E3C408"/>
<path d="M94.1788 114.39C93.9838 114.585 93.4438 114.84 93.1938 114.835C92.6238 114.815 85.2888 107.695 84.9988 107.07C84.5438 106.085 85.3238 105 86.2488 105.01C86.8238 105.015 94.2838 112.345 94.5088 112.87C94.7338 113.395 94.5488 114.025 94.1788 114.395V114.39Z" fill="#E3C408"/>
<path d="M72.432 112.85V124.81C72.432 125.065 69.957 125.065 69.957 124.81V112.85C69.957 112.665 72.007 112.51 72.432 112.85Z" fill="#E3C408"/>
<path d="M69.9578 25.6349C70.2578 24.6349 72.4328 24.9649 72.4328 25.6349V36.7699C72.4328 37.5899 69.9578 37.5899 69.9578 36.7699C69.9578 34.5299 69.5078 27.1299 69.9578 25.6349Z" fill="#E3C408"/>
</g>
<defs>
<clipPath id="clip0_2001_4040">
<path d="M0.667969 16C0.667969 7.16345 7.83141 0 16.668 0H134.668C143.505 0 150.668 7.16344 150.668 16V134C150.668 142.837 143.505 150 134.668 150H16.668C7.83142 150 0.667969 142.837 0.667969 134V16Z" fill="white"/>
</clipPath>
</defs>
</svg>
