<svg width="150" height="150" viewBox="0 0 150 150" fill="none" xmlns="http://www.w3.org/2000/svg">
<g clip-path="url(#clip0_2001_3107)">
<path d="M0 16C0 7.16345 7.16344 0 16 0H134C142.837 0 150 7.16344 150 16V134C150 142.837 142.837 150 134 150H16C7.16345 150 0 142.837 0 134V16Z" fill="#EBF5FA"/>
<path d="M51.719 109.495C53.599 122.645 75.054 117.935 83.949 118.4C86.734 118.545 96.074 118.845 95.344 122.88C94.799 125.905 90.104 124.76 87.944 124.975C70.504 126.705 39.574 135.57 43.389 105.9C45.139 92.2751 52.629 72.7751 69.334 74.7701C76.709 75.6501 98.909 88.1651 102.339 75.2951C103.524 70.8401 101.044 70.4551 101.214 67.2801C101.404 63.6201 104.494 61.5501 107.974 61.9801C109.684 62.1901 110.284 63.4601 111.329 63.7201C112.374 63.9801 113.509 63.6751 114.709 63.9801C116.409 64.4101 118.569 67.2951 119.984 68.5301C122.329 70.5751 126.034 71.2551 124.724 75.4751C124.314 76.7951 120.479 79.4901 119.184 80.1201C118.044 80.6801 114.184 81.4751 114.004 81.6701C113.869 81.8201 113.609 84.9301 113.439 85.6551C112.364 90.1201 108.979 97.8801 106.759 101.91C106.069 103.16 101.009 108.06 102.319 109.305C102.449 109.425 105.814 109.09 104.349 111.15C104.009 111.63 100.904 111.64 100.369 111.435C98.924 110.885 100.084 106.955 100.544 105.89C101.374 103.98 106.839 99.0751 101.844 101.73C98.664 103.42 94.924 108.26 96.124 112.005C96.299 112.545 98.014 111.825 98.519 112.555C98.774 112.92 98.874 114.09 98.464 114.44C97.694 115.1 91.109 115.015 90.139 114.015C89.794 113.66 86.694 108.035 86.669 107.635C86.604 106.435 88.149 104.67 88.394 103.21C90.269 91.9901 70.109 92.0501 68.554 102.655C67.409 110.455 75.374 105.965 79.199 109.67C79.924 110.375 82.224 113.925 80.599 114.42C78.529 115.045 78.494 112.735 77.569 111.665C74.574 108.205 69.114 112.275 66.739 107.205C64.014 101.39 69.264 94.0701 74.999 92.7201C82.269 91.0051 92.299 94.0301 90.999 103.26C90.754 105.005 89.339 106.195 89.644 107.93C89.819 108.915 92.364 113.4 93.579 112.21C93.764 112.03 93.7691 108.37 94.119 107.105C96.154 99.7751 103.294 99.9551 107.044 94.9151C108.499 92.9601 111.939 84.3001 111.439 82.2051C111.379 81.9451 108.054 81.5201 109.029 79.7951C109.564 78.8501 111.639 79.5751 112.679 79.4401C114.709 79.1801 116.714 78.5851 118.524 77.6301C125.714 73.8201 121.614 73.0801 117.799 69.9651C116.924 69.2501 113.654 65.1301 112.509 66.3351C112.384 66.4651 112.984 68.9701 111.009 68.7151C109.629 68.5351 110.389 65.6201 108.414 64.7951C104.244 63.0501 101.939 68.2551 105.459 70.2951C106.244 70.7501 108.569 70.7751 108.119 72.2951C107.669 73.8151 105.339 72.7701 105.234 72.8951C105.074 73.0901 104.834 76.3401 104.094 77.7651C97.054 91.3051 76.614 77.2351 67.124 76.9301C53.284 76.4851 46.144 97.6451 45.534 108.76C44.119 134.505 77.5541 122.285 92.119 122.4C92.209 121.9 91.469 121.855 91.114 121.775C74.809 118.215 44.604 129.895 49.624 100.475C49.829 99.2651 50.864 94.0101 52.549 94.4151C54.379 94.8551 52.849 97.1651 52.864 98.2051C52.904 100.87 57.104 104.225 58.339 106.495C58.899 107.525 59.964 112.21 60.269 112.21H74.8291C75.514 112.21 76.034 114.34 73.709 114.735C72.239 114.985 59.144 114.9 58.349 114.495C57.229 113.93 57.244 109.875 56.379 108.095C55.934 107.175 53.349 104.04 52.554 103.21C52.339 102.985 52.564 102.51 51.714 102.75C51.929 104.855 51.424 107.45 51.714 109.485L51.719 109.495Z" fill="#3A9ECE"/>
<path d="M68.4699 22.6701C68.5149 22.6951 68.8349 23.5301 68.8349 23.5801V45.2401H90.4949C90.9599 45.2401 91.3449 46.3701 91.4249 46.8601C91.6799 48.5001 91.6099 64.4201 91.2199 65.2551C91.1399 65.4301 90.5699 65.9901 90.4999 65.9901H68.8399C68.5199 65.9901 69.5649 71.6701 67.8799 72.1551C65.3899 72.8701 66.1749 63.4451 66.6549 63.4451H88.8599V47.7901H67.5649C67.4249 47.7901 66.2899 46.9601 66.2899 46.8801V25.4001C66.2899 25.3601 65.7849 24.8551 65.7449 24.8551H50.8199C50.7799 24.8551 50.2749 25.3601 50.2749 25.4001V46.8801C50.2749 46.9451 49.4299 47.7901 49.3649 47.7901H27.7049V63.4451H49.7299C49.7699 63.4451 50.2749 63.9501 50.2749 63.9901V77.4601C50.2749 78.3901 47.7249 78.2601 47.7249 76.3701V65.9951H26.0649C25.6099 65.9951 25.2149 64.4851 25.1499 64.0001C24.9199 62.2651 24.9649 46.8001 25.3449 45.9801C25.4249 45.8051 25.9949 45.2451 26.0649 45.2451H47.7249C48.5749 45.2451 48.1199 29.6901 48.1049 28.3001C48.0949 27.4651 47.1149 22.6751 48.6349 22.6751C51.2299 22.6751 67.6149 22.1801 68.4749 22.6751L68.4699 22.6701Z" fill="#3A9ECE"/>
<path d="M113.124 70.0951C115.379 70.0401 115.319 73.6651 113.059 73.6651C110.799 73.6651 110.584 70.1551 113.124 70.0951Z" fill="#3A9ECE"/>
</g>
<defs>
<clipPath id="clip0_2001_3107">
<path d="M0 16C0 7.16345 7.16344 0 16 0H134C142.837 0 150 7.16344 150 16V134C150 142.837 142.837 150 134 150H16C7.16345 150 0 142.837 0 134V16Z" fill="white"/>
</clipPath>
</defs>
</svg>
