<?xml version="1.0" encoding="UTF-8"?>
<svg id="Capa_2" data-name="Capa 2" xmlns="http://www.w3.org/2000/svg" viewBox="0 0 200 79.68">
  <defs>
    <style>
      .cls-1 {
        fill: #e8007f;
      }

      .cls-2 {
        fill: #fff;
      }

      .cls-3 {
        fill: #f4cd27;
      }

      .cls-4 {
        fill: #ae005f;
      }

      .cls-5 {
        fill: #3a9ece;
      }

      .cls-6 {
        fill: #303c77;
      }
    </style>
  </defs>
  <g id="Capa_1-2" data-name="Capa 1">
    <g>
      <g>
        <path class="cls-6" d="M137.55,34.04c-.13-.4-.33-.82-.61-1.29-.02-.03-.04-.06-.06-.09-.33-.5-.73-.81-1.19-.96-.07-.11-.14-.21-.22-.31l.92-.06c.56-.04,1.07-.31,1.42-.74.35-.43.5-1,.41-1.55l-.07-.47c-.22-1.63-.65-2.99-1.32-4.12-.22-.34-.59-.92-1.31-1.13-.63-1.09-1.44-2.01-2.46-2.75-.8-.57-1.72-.99-2.8-1.27-.04,0-.07-.02-.11-.03-.77-.16-1.53-.23-2.28-.23-.26,0-.52,0-.76.03-1.58.11-3.11.55-4.55,1.33-.02.01-.05.03-.07.04-1.53.9-2.66,2.07-3.37,3.46-.39-.53-.85-1.02-1.38-1.46-1.36-1.06-2.62-1.61-3.82-1.68-.64-.05-1.14-.07-1.51-.07-.16,0-.29,0-.4.01-1.25.09-2.45.45-3.58,1.09-.02.01-.04.02-.06.04-1.52.93-2.72,2.24-3.61,3.89.02-.59.03-1.19.06-1.77.27-.08.53-.22.75-.42.4-.35.64-.84.67-1.37.06-1,.13-2.19.19-3.57l.03-.63c.04-.93-.57-1.73-1.42-1.99-.09-.2-.19-.38-.34-.54-.36-.4-.87-.63-1.41-.65-.61-.02-1.21-.03-1.79-.03-1.09,0-2.16.03-3.21.1-.91.07-1.8.16-2.73.3-.04,0-.09.01-.13.03l-.21.05c-.91.2-1.56,1.01-1.56,1.94,0,.24,0,.31.81,4.45.09.47.34.87.68,1.15-.03.69-.05,1.41-.07,2.15-.28-.31-.58-.6-.91-.88-1.37-1.07-2.64-1.62-3.82-1.68-.65-.05-1.14-.07-1.51-.07-.16,0-.29,0-.4.01-1.27.09-2.48.45-3.64,1.12-.9.55-1.69,1.25-2.37,2.06-.25-.4-.64-.71-1.1-.85-.3-.73-1.01-1.24-1.84-1.24-.02,0-4.37.15-4.41.15-.43.03-.77.16-1.03.32-.86-.3-1.74-.45-2.63-.45-.17,0-.35,0-.54.02-.99.07-1.96.32-2.93.77-1.89.95-3.33,2.52-4.3,4.71-.26-.3-.58-.51-.95-.61-.42-.71-.9-1.31-1.45-1.8-1.26-1.18-2.81-1.81-4.59-1.85-.1,0-.19,0-.29,0-.15,0-.3,0-.42.01-1,.06-2.53.44-3.78,1.92-.02,0-.4-.01-.4-.01-.43-.01-.96-.02-1.52-.03-.62-.01-1.14-.02-1.52-.02-.23,0-.42,0-.56,0-.03,0-.07,0-.1,0-.18,0-.74.04-1.23.42-.38-1.13-.77-2.1-1.19-2.89-.02-.03-.14-.25-.14-.25-.14-.23-.5-.84-1.24-1.06-.21-.39-.44-.74-.67-1.07-.32-.44-.65-.81-.99-1.13.25-.45.55-1.01.93-1.75.46-.9.93-1.86,1.4-2.87.23-.49.25-1.05.05-1.56-.2-.5-.59-.91-1.09-1.11,0,0-.22-.09-.28-.12-.34-.72-1.19-1.07-2.57-1.62-1.55-.6-1.8-.66-2.19-.66-.07,0-.15,0-.22.01-.35.04-1.21.24-1.66,1.24-.02.03-.04.09-.1.2l-.27.56c-.42.86-.71,1.44-.88,1.76-.33.64-.73,1.36-1.19,2.14-.55.94-.24,2.14.69,2.7l.43.26c-.95.51-1.79,1.24-2.48,2.18-2.02,2.72-3.24,7.48-3.72,14.54-1.47.88-2.75,1.91-3.82,3.09l-.41.44c-.36.39-.55.92-.53,1.45s.27,1.04.67,1.39l3.33,2.93c.16.14.33.25.52.33,0,.44.02.87.03,1.29,0,.84.45,1.58,1.16,1.93.04.02.08.04.11.05.04.02.07.02.1.03.1.25.25.48.45.68.32.32.74.51,1.19.56.04,0,.17.01.4.01.31,0,.94,0,1.91-.04l2.3-.09c.55-.03,1.06-.28,1.43-.7.65-.73.59-1.67.56-2.09-.01-.17-.03-.93-.02-2.67.17.23.34.46.49.72.01.02.03.05.04.07.71,1.15,1.19,2.73,1.43,4.71l.07.54c.1.79.65,1.41,1.37,1.64.11.28.28.53.51.73.36.32.83.5,1.32.5.04,0,.08,0,.12,0,2.67-.16,4.09-.23,4.35-.24.54-.01,1.06-.24,1.42-.64s.55-.93.52-1.47c0-.14-.02-.27-.03-.41.17.03.32.04.42.04.04,0,.08,0,.12,0,.03,0,.05,0,.08,0,.19-.02.22-.03,1.7-.38l2.7-.65c.41-.09.78-.3,1.06-.61.37-.41.54-.94.51-1.53.11.23.27.44.46.61.22.19.48.33.75.41.12.28.29.53.52.73.36.32.83.49,1.31.49.04,0,.09,0,.13,0l4.42-.3c.17-.01.34-.05.5-.11.28,1.66.89,3.1,1.81,4.31.88,1.11,1.95,1.92,3.21,2.44.35.76,1.06,1.05,1.43,1.18.93.39,1.98.59,3.12.59.24,0,.49,0,.74-.03.44-.03.81-.08,1.09-.15,2.01-.44,3.67-1.51,4.91-3.15,1.19-1.54,1.9-3.5,2.13-5.83.07-.79.08-2.16.03-4.11.67.57,1.41,1.02,2.2,1.36.33.75,1.1,1.07,1.59,1.27.98.37,2,.56,3.04.56h0c.2,0,.39,0,.58-.02.81-.05,1.6-.22,2.4-.52.03-.01.06-.02.09-.04.86-.37,1.65-.87,2.44-1.55.56-.49,1.05-1.05,1.51-1.64l.28.7c.23.57.71.99,1.29,1.16.11.2.24.4.43.58.64.62,1.46.62,1.81.62.12,0,.26,0,.38,0,.29,0,.7-.03,1.22-.06l.33-.02c1.56-.12,2.7-.24,3.37-.35.78-.12,1.85-.29,2.26-1.44.12-.33.16-.69.1-1.04.14.07.29.13.43.2.34.77,1.14,1.09,1.58,1.26.98.38,2.01.57,3.05.57.2,0,.39,0,.6-.02.84-.06,1.63-.23,2.4-.53.02,0,.05-.02.07-.03.88-.38,1.67-.88,2.44-1.54.86-.75,1.59-1.64,2.21-2.63.69.96,1.59,1.69,2.64,2.16.35.78,1.16,1.11,1.52,1.25.81.32,1.69.48,2.61.48.17,0,.34,0,.52-.02.26-.02.56-.05.93-.11.02,0,.04,0,.07-.01,2.07-.4,3.84-1.37,5.28-2.9,1.44-1.54,2.29-3.38,2.55-5.47,0-.03,0-.07.01-.1.03-.41.03-.8,0-1.21-.06-.85-.18-1.5-.37-2.01ZM66.45,46.24s0-.01,0-.02c0,0,0,0,.01.01,0,0,0,0-.01,0Z"/>
        <path class="cls-6" d="M199.52,59.29c.37-.42.54-.98.47-1.54l-.05-.39c-.14-1.46-.48-2.71-1.01-3.7-.01-.02-.1-.17-.1-.17-.29-.49-.65-.8-1.07-.98-.53-.99-1.22-1.83-2.1-2.52-.7-.54-1.54-.95-2.48-1.24-.03,0-.06-.02-.09-.02-.81-.2-1.64-.31-2.46-.31-.09,0-.18,0-.28,0-1.42.04-2.81.39-4.13,1.03-.02.01-.05.02-.07.04-.97.52-1.77,1.17-2.41,1.92-.05-.02-.1-.04-.15-.06-1.85-3.53-4.69-4.34-6.9-4.34h-.24c-.24.01-.47.03-.77.06-.03,0-.06,0-.09,0-1.9.25-3.53.94-4.85,2-.22-.39-.56-.7-.98-.87-.01,0-.02,0-.04-.01.02-.17.05-.34.08-.54.07-.26.08-.54.03-.81-.05-.3-.28-1.14-1.26-1.56-.23-.5-.66-.9-1.21-1.07-.12-.04-.34-.11-2.13-.4q-2.02-.32-2.22-.32c-1.85,0-2.07,1.83-2.18,2.82-.05.41-.1.93-.16,1.56-1.74.13-1.83.17-2.11.27-.32.12-.6.32-.81.57-1.34-.83-2.76-1.08-3.98-1.08-.09,0-.17,0-.26,0-.17,0-.33.02-.51.03,0,0-.3.02-.35.03-2.19.29-4.02,1.14-5.43,2.49-.12-.08-.24-.14-.37-.19-.18-.34-.36-.67-.57-.99-1.11-1.73-2.59-3.05-4.4-3.9-1.21-.59-2.65-.89-4.28-.89-.12,0-.25,0-.37,0-4.14.12-7.2,1.25-9.08,3.34-1.78,1.9-2.7,4.5-2.72,7.72v.48c-.04-.06-.06-.14-.1-.2-.03-.06-.06-.11-.09-.16l-.06-.09c-.23-.36-.57-.61-.95-.76-.34-.62-.74-1.17-1.21-1.62-1.1-1.12-2.49-1.74-4.19-1.86-.17,0-.33-.01-.54-.01h-.03c-.91.02-2.29.3-3.47,1.54-.07,0-.14,0-.22-.01-.39-.03-.85-.06-1.33-.07-.93-.06-1.56-.09-1.86-.09-.05,0-.09,0-.14,0-.23,0-1.13.06-1.66.9-.75-.65-1.67-1.14-2.75-1.46-.08-.02-.16-.04-.27-.07-2.32-.57-4.49-.25-6.45.94-.41.25-.79.53-1.16.85-.05-.42-.11-.86-.23-1.31-.3-1.15-.66-1.94-1.13-2.48-.2-.23-.45-.4-.72-.51-.26-.47-.55-.92-.89-1.32-1.43-1.66-3.33-2.5-5.64-2.5-.09,0-.18,0-.28,0-2.89.08-6.8,1.43-9.09,7.42-.86,2.35-1.27,4.28-1.27,5.89v.99c0,.81,0,1.31,0,1.46.08,3.14.73,5.92,1.92,8.23.35.68.6,1.12.85,1.46,1,1.38,2.16,2.41,3.47,3.06.34.76,1.12,1.09,1.6,1.29.68.28,1.45.48,2.28.57.1.01.23.02.39.02.08,0,.41,0,.41,0,.89-.02,1.61-.08,2.15-.18.03,0,.05,0,.08-.01,1.98-.43,3.57-1.38,4.72-2.81.08-.1.16-.21.24-.32.24.3.52.53.71.69.78.59,1.64,1.03,2.58,1.3l.2.05c1.17.3,2.35.34,3.51.11.03,0,.05-.01.08-.02,1.91-.45,3.56-1.49,4.93-3.1.02.09.03.19.05.28,0,.03.01.05.02.08.12.71.6,1.29,1.24,1.55.53,1.11,1.59,1.19,1.85,1.19h.02c.23,0,.29-.01,1.61-.28l2.4-.48c.43-.08.84-.3,1.13-.63.14-.15.33-.41.44-.77.02.02.03.04.05.06.18.17.39.31.62.4.11.24.26.46.45.64.37.35.86.55,1.37.55.02,0,3.94-.11,3.94-.11,1.09-.03,1.95-.93,1.93-2.03-.01-.67-.03-1.44-.03-2.27-.05-3.55-.08-5.61-.1-6.3-.04-1.57-.09-2.5-.16-3.07-.12-1.01-.3-1.93-.53-2.76.15.13.32.24.51.32.11.24.26.47.45.65.37.35.86.55,1.37.55.01,0,2.27-.06,3.35-.09.05,2.59.15,6.75.3,12.56.02.83.55,1.53,1.28,1.8.19.4.5.73.9.93.42.21.79.21,1,.21.09,0,.21,0,.34,0l3.42-.02c.53,0,1.05-.22,1.42-.61.37-.38.57-.9.56-1.44l-.14-5.3c.96-.2,1.9-.52,2.81-.96.65-.34,1.24-.74,1.78-1.18.05.56.12,1.06.24,1.46.13.54.35,1.08.67,1.66.75,1.45,1.85,2.54,3.28,3.26.32.72,1.03,1.05,1.45,1.24,1.03.44,2.09.66,3.15.66.02,0,.6-.01.6-.01.29,0,.56-.04.8-.08.23.18.49.32.78.4.18.05.55.13,2.04.39q1.93.38,2.17.38c.39,0,.78-.12,1.11-.34.48-.32.72-.67.91-1.42.42.38.92.46,1.29.46.13,0,.27-.01.4-.04l1.89-.39q2.14-.42,2.51-.66h0c.5-.33.94-.92.94-1.79,0-.07,0-.14-.01-.21l-.14-1.31c-.02-.2-.05-.49-.08-.92.75,1.32,1.8,2.33,3.13,3,.32.73,1.04,1.05,1.44,1.23,1.02.44,2.07.67,3.12.67h.62c.3-.02.57-.05.82-.09.23.19.5.33.8.41.17.05.55.12,2.02.39,1.91.38,1.96.38,2.17.38.37,0,.73-.1,1.04-.3.85-.52,1.01-1.16,1.3-3.46.31.25.65.47,1.01.66.34.73,1.06,1.05,1.38,1.19.81.36,1.7.55,2.64.55h.22c.23-.01.51-.03.88-.08,1.88-.28,3.51-1.09,4.87-2.42,1.35-1.34,2.19-2.97,2.49-4.84,0-.04.01-.07.01-.11.03-.27.06-.63.05-1.09-.03-.75-.11-1.34-.26-1.81-.1-.37-.26-.74-.51-1.2-.02-.04-.05-.08-.07-.12-.21-.34-.46-.61-.75-.79h.17c.56-.02,1.08-.27,1.45-.69ZM95.73,58.14c-.25.56-.48,1.28-.77,2.35-.12.47-.2.83-.25,1.16-.12.8-.17,1.56-.18,2.29-1.02.03-2.09.06-2.09.06-1.03.03-1.86.83-1.93,1.86l-.03.45c-.01.3-.06.46-.08.53-.09.03-.31.1-.72.13-.07,0-.15-.02-.25-.08,0-.05.01-.09.01-.14,0-.3-.06-.51-.14-.79l-.1-.33c-.32-1.01-.5-2.18-.54-3.59-.02-.9-.01-1.6.04-2.07.2-1.87.61-3.36,1.21-4.42.2-.35.41-.63.62-.83.17.26.42.51.79.7.02.01.05.02.08.03.31.7.88.99,1.1,1.08.24.1.5.15.76.15h.03c.12,0,.66.02,3.12.13-.23.42-.46.86-.66,1.32Z"/>
        <g>
          <path class="cls-3" d="M47.78,42.51c-.97-8.71-2.24-14.56-3.83-17.57-.12-.2-.2-.34-.21-.34,0,.04.07.21.19.48,1.23,3.1,2.27,8.34,3.12,15.71.34,2.76.61,5.8.83,9.12.03.43.05.83.03,1.23l-3.8.25.03.55c2.64-.16,4.11-.23,4.43-.24-.23-3.43-.49-6.48-.78-9.19ZM42.31,14.71s-.2.28-.47.81c-.8,1.67-1.47,2.94-1.98,3.76-.23.4-.34.64-.34.72,0,.08.13.19.35.3.25.17.39.24.43.24.11-.05.61-.94,1.52-2.68.39-.76.85-1.69,1.36-2.8-.4-.17-.82-.34-.87-.34ZM38.76,27.4c-.13-.34-.21-.52-.26-.59-.08,0-.24.33-.47,1-.38,1.09-.72,2.52-1,4.3-.28,1.78-.42,3.05-.44,3.87,0,.06.03.1.11.11.21.05.37.09.52.07.08,0,.13-.13.15-.38.04-.81.21-2.01.5-3.61.25-1.38.56-2.57.9-3.56.13-.34.2-.54.19-.6,0-.09-.07-.28-.21-.61ZM40.38,13.33c-.91-.35-1.41-.52-1.48-.52-.05,0-.01-.01-.19.34-.58,1.19-.97,1.97-1.17,2.37-.3.58-.71,1.32-1.24,2.23l1.36.82c.87.56,1.34.83,1.38.83.09,0,.58-.88,1.47-2.62.9-1.74,1.34-2.68,1.33-2.82,0-.03-.5-.25-1.46-.64ZM38.76,27.4c-.13-.34-.21-.52-.26-.59-.08,0-.24.33-.47,1-.38,1.09-.72,2.52-1,4.3-.28,1.78-.42,3.05-.44,3.87,0,.06.03.1.11.11.21.05.37.09.52.07.08,0,.13-.13.15-.38.04-.81.21-2.01.5-3.61.25-1.38.56-2.57.9-3.56.13-.34.2-.54.19-.6,0-.09-.07-.28-.21-.61ZM36.54,41.82c-.13-.02-.19-.03-.23-.03h-.01c-.04.1-.04.9-.03,2.44,0,1.67.01,2.68.04,3.04.03.34.03.55,0,.59-.03.05-.24.09-.64.11-.41.03-1.13.05-2.19.08-.48.02-.81.01-.96,0-.03.24-.03.39-.03.46,0,.06,0,.09.02.1.07,0,.74,0,2.04-.04l2.26-.09c.12,0,.16-.23.13-.67-.02-.3-.03-1.31-.03-3.04,0-1.51.02-2.34.05-2.52h.06c.09-.02.26,0,.46.02.21.03.34.05.42.05h.03c-.51-.25-.97-.41-1.39-.5ZM38.76,27.4c-.13-.34-.21-.52-.26-.59-.08,0-.24.33-.47,1-.38,1.09-.72,2.52-1,4.3-.28,1.78-.42,3.05-.44,3.87,0,.06.03.1.11.11.21.05.37.09.52.07.08,0,.13-.13.15-.38.04-.81.21-2.01.5-3.61.25-1.38.56-2.57.9-3.56.13-.34.2-.54.19-.6,0-.09-.07-.28-.21-.61Z"/>
          <path class="cls-3" d="M47.13,48.41c-.65-8.83-1.66-15.78-3.04-20.86-.6-2.1-1.28-3.68-2.05-4.74-.99-1.36-2.19-1.99-3.62-1.9-.5.03-1.02.17-1.51.4-.8.37-1.5.96-2.09,1.76-1.88,2.52-3,7.37-3.4,14.56-1.71.89-3.13,1.97-4.28,3.23l-.41.44,3.33,2.93c.29-.32.52-.56.68-.71.3-.3.46-.45.48-.45l.02.06c0,.13,0,.28,0,.47,0,1.06.01,2.31.06,3.74,0,.08.02.13.05.15.03.01.74,0,2.15-.06.97-.04,1.64-.07,1.99-.09.12,0,.19-.01.2-.03.03-.01.03-.17.01-.44-.02-.29-.03-1.33-.03-3.12,0-1.65.03-2.52.06-2.62l.05-.02c.1,0,.4.03.89.12.98.17,1.89.64,2.75,1.4.69.59,1.27,1.3,1.74,2.13.87,1.42,1.44,3.27,1.71,5.51l.07.54,1.68-.1,2.69-.14-.15-2.16ZM41.7,38.72l-.5-.32c-1.56-1.03-3.22-1.6-4.96-1.72-.21-.01-.32-.05-.32-.09,0-.09.06-.76.18-2.02.25-2.38.61-4.41,1.07-6.06.39-1.36.8-2.31,1.24-2.8l.15-.18.2.36c.95,1.84,1.8,5.21,2.57,10.1.21,1.22.32,2.07.36,2.54,0,.13.01.19,0,.19Z"/>
          <path class="cls-3" d="M64.41,45.37c-.21-4.01-.34-6.38-.4-7.14-.11-1.58-.21-2.68-.3-3.3-.3-1.96-.8-3.52-1.45-4.66l-.07-.11h0c0,.09.07.32.21.72.26.83.48,1.85.69,3.08.07.48.16,1.54.27,3.17.09,1.34.29,4.76.59,10.24l-3.84.28.04.61,4.42-.3c-.05-.78-.1-1.65-.15-2.6ZM56.86,32.11c-.21-.5-.34-.47-.44-.46-.09,0-.2.05-.32.13-.82.59-1.48,1.91-1.95,3.95-.38,1.78-.52,3.58-.4,5.42.05.72.15,1.72.32,2.99.19,1.41.37,2.53.57,3.38l-1.19.3-2.73.66c.03.5.11.74.22.74.07,0,.77-.18,2.11-.5,1.35-.32,2.04-.5,2.05-.5s.03-.03.02-.09l-.03-.23c-.34-1.99-.58-3.92-.7-5.76l-.03-.68c0-3.39.56-6.06,1.68-8,.32-.5.6-.84.85-1.01.04-.03.06-.06.06-.09s-.03-.11-.1-.26Z"/>
          <path class="cls-3" d="M63.05,42.71c-.13-2.77-.22-4.45-.26-5.04-.1-1.54-.23-2.82-.38-3.84-.4-2.84-1.23-4.8-2.49-5.92-.89-.84-1.99-1.28-3.3-1.31-.18,0-.34,0-.5,0-1.75.11-2.93,1.33-3.54,3.65l-.17.6v-.03c0-.08.01-.46.03-1.12.03-.6.03-.95.03-1.11,0-.03-.02-.04-.03-.05-.01-.01-.23-.01-.68-.03-.42-.01-.93-.02-1.5-.03-1.11-.02-1.89-.02-2.09,0-.07,0-.07-.08-.09.35,0,.21-.01.46,0,.74.02,2.94.13,5.82.32,8.65.3,4.45.68,7.66,1.16,9.66.05.22.03.19.07.19.12-.01.57-.11,1.34-.3,1.93-.46,2.88-.7,2.9-.7.01,0,0-.03,0-.09l-.26-1.58c-.23-1.54-.38-2.9-.46-4.05-.13-1.89-.04-3.62.28-5.18.52-2.59,1.31-4.25,2.37-4.96.16-.09.36-.15.61-.17.2-.01.34,0,.41.01.76.38,1.28,2.52,1.54,6.43l.52,9.63,4.39-.3-.21-4.13ZM50.91,44.4h-.03c0-.09,0-.14,0-.14s.03.03.03.08c0,.03,0,.04-.01.06ZM59.5,31.04h-.01s-.02-.04-.02-.08,0-.06,0-.06c.02,0,.03.03.03.09,0,.03,0,.04,0,.05Z"/>
          <path class="cls-3" d="M72.63,48.93h-.25c-.15.03-.22.05-.22.09,0,.09.07.26.2.48.09.19.2.34.33.48.02.03.03.04.05.04v-.06s-.11-1.03-.11-1.03ZM81.4,38.02l-.64-11.53-.58-.03.41,7.74c.42,7.47.56,12.01.4,13.62-.17,2.07-.75,3.78-1.77,5.16-1.01,1.38-2.34,2.29-4,2.72-.3.07-.68.12-1.13.15-.66.05-1.18.04-1.55,0-.29-.05-.46-.08-.52-.07h-.03s.12.09.36.17c.86.37,1.86.51,3,.43.3-.02.58-.05.8-.11,1.54-.34,2.79-1.14,3.76-2.42.97-1.27,1.54-2.87,1.72-4.79.13-1.43.04-5.11-.26-11.02ZM75.41,45.79c-.74.45-1.44.78-2.11.96-.31.07-.68.13-1.07.15-.64.05-1.23.01-1.78-.07h-.01s.13.07.4.19c.72.28,1.09.15,1.1.26,0,.07.2.11.57.16.2.01.43.01.69,0,.58-.04,1.11-.13,1.56-.26.35-.12.54-.19.58-.23.05-.03.08-.24.09-.62v-.54ZM71.96,30.58c-.19-.11-.37-.17-.55-.15-.28.01-.56.19-.83.51-.78.98-1.15,2.56-1.12,4.74l.02.51c.1,1.52.45,2.84,1.06,3.96.13.23.22.38.23.38l-.03-.17c-.24-.7-.39-1.37-.48-2-.06-.51-.1-.89-.12-1.15-.07-1.11,0-2.16.21-3.17.14-.64.3-1.16.49-1.57.27-.56.8-1.16,1.17-1.34l.3-.16h0c0-.09-.12-.23-.36-.39ZM71.96,30.58c-.19-.11-.37-.17-.55-.15-.28.01-.56.19-.83.51-.78.98-1.15,2.56-1.12,4.74l.02.51c.1,1.52.45,2.84,1.06,3.96.13.23.22.38.23.38l-.03-.17c-.24-.7-.39-1.37-.48-2-.06-.51-.1-.89-.12-1.15-.07-1.11,0-2.16.21-3.17.14-.64.3-1.16.49-1.57.27-.56.8-1.16,1.17-1.34l.3-.16h0c0-.09-.12-.23-.36-.39ZM71.96,30.58c-.19-.11-.37-.17-.55-.15-.28.01-.56.19-.83.51-.78.98-1.15,2.56-1.12,4.74l.02.51c.1,1.52.45,2.84,1.06,3.96.13.23.22.38.23.38l-.03-.17c-.24-.7-.39-1.37-.48-2-.06-.51-.1-.89-.12-1.15-.07-1.11,0-2.16.21-3.17.14-.64.3-1.16.49-1.57.27-.56.8-1.16,1.17-1.34l.3-.16h0c0-.09-.12-.23-.36-.39Z"/>
          <path class="cls-3" d="M79.94,33.61l-.43-8.27-4.24.15c-.09,0-.14.02-.15.04-.01.01-.01.38.02,1.09-.56-.36-1.03-.64-1.44-.8-.86-.34-1.74-.49-2.65-.43-.75.05-1.48.24-2.18.56-1.66.83-2.89,2.31-3.66,4.45-.61,1.76-.9,3.18-.83,4.29.06,1.1.1,1.71.11,1.82.13,1.97.57,3.77,1.31,5.42,1.17,2.45,2.82,3.89,4.91,4.32.43.08.91.1,1.48.07,1.19-.08,2.33-.56,3.44-1.42l.42-.33v1.77c.02,1.79-.3,3.03-.96,3.79-.36.44-.81.68-1.36.71-.21.01-.44,0-.7-.06-.84-.17-1.38-.96-1.6-2.39l-.07-.52-4.36.29.08.76c.18,1.6.68,2.94,1.5,4.02,1.07,1.35,2.52,2.13,4.37,2.32.25.03.59.01,1.01-.01l.27-.02c1.02-.08,1.67-.29,2.5-.78,2.12-1.26,3.33-3.42,3.66-6.47.16-1.55.01-6.34-.44-14.36ZM74.66,38.09c-.06.6-.25,1.22-.6,1.84-.46.79-.94,1.34-1.48,1.66-.28.17-.54.26-.78.27-.32.03-.64-.08-.91-.32-.74-.63-1.33-1.79-1.76-3.47-.12-.56-.21-1.27-.27-2.17-.1-1.5.08-2.87.55-4.1.31-.87.72-1.45,1.24-1.76.23-.13.49-.2.78-.22.25-.02.45,0,.62.08,1.01.56,1.8,2.08,2.33,4.57.1.49.18,1.22.25,2.19.04.62.05,1.09.03,1.42Z"/>
          <path class="cls-3" d="M96.39,31.09c-.05-.78-.23-1.51-.5-2.19-.13-.28-.27-.58-.42-.86-.05-.09-.1-.14-.12-.14v.03c0,.07.04.22.13.44.13.44.21.94.25,1.52.17,2.53-.85,4.78-3.08,6.76l-.38.33c.69.25,1.07.37,1.12.36.15,0,1.03-.89,1.44-1.44,1.15-1.56,1.68-3.15,1.56-4.82ZM91.6,37.49s-.2.11-.56.31c-.48.3-1.01.58-1.59.84-.57.25-1.07.43-1.47.54-.15.03-.23.07-.23.11,0,.04.09.15.28.31.19.17.36.24.48.23.42-.05.97-.23,1.67-.51.32-.13.5-.23.57-.3.09-.11.23-.29.38-.58.32-.58.48-.89.47-.95h-.01ZM97.19,40.02c-.24-.08-.39-.13-.44-.12l-.05.1c-.5,1.11-1.11,2.09-1.83,2.94-1.15,1.38-2.42,2.27-3.86,2.65-.34.09-.62.14-.84.16-.97.06-1.62.05-2-.02l-.46-.07h-.03s.16.09.48.22c.88.34,1.82.48,2.78.42.64-.04,1.25-.18,1.84-.4.68-.29,1.31-.7,1.91-1.21,1.1-.97,1.95-2.15,2.58-3.56.25-.58.38-.88.38-.92h0s-.19-.09-.48-.19ZM89.9,29.62c-.18-.24-.47-.34-.88-.31-.78.05-1.4.7-1.91,1.97-.25.58-.42,1.26-.54,2.04-.02.15-.03.25-.03.3,0,.03.02.04.05.04.1,0,.31-.09.62-.23.11-.05.17-.1.19-.13.03-.03.11-.25.23-.64.37-1.15.88-1.95,1.53-2.44.19-.13.48-.26.88-.42l-.13-.19ZM89.9,29.62c-.18-.24-.47-.34-.88-.31-.78.05-1.4.7-1.91,1.97-.25.58-.42,1.26-.54,2.04-.02.15-.03.25-.03.3,0,.03.02.04.05.04.1,0,.31-.09.62-.23.11-.05.17-.1.19-.13.03-.03.11-.25.23-.64.37-1.15.88-1.95,1.53-2.44.19-.13.48-.26.88-.42l-.13-.19ZM89.9,29.62c-.18-.24-.47-.34-.88-.31-.78.05-1.4.7-1.91,1.97-.25.58-.42,1.26-.54,2.04-.02.15-.03.25-.03.3,0,.03.02.04.05.04.1,0,.31-.09.62-.23.11-.05.17-.1.19-.13.03-.03.11-.25.23-.64.37-1.15.88-1.95,1.53-2.44.19-.13.48-.26.88-.42l-.13-.19Z"/>
          <path class="cls-3" d="M92.26,37.65s-.1.13-.21.38c-.3.67-.66,1.26-1.1,1.74-.55.6-1.06.93-1.54.96-.62.05-1.21-.18-1.79-.68-.25-.23-.5-.52-.73-.87-.11-.16-.16-.26-.16-.31,0-.04.06-.07.17-.08.35-.02.88-.17,1.58-.42.71-.27,1.34-.56,1.91-.89,2.2-1.29,3.66-2.94,4.38-4.96.28-.86.39-1.71.34-2.56-.03-.43-.1-.84-.21-1.26-.34-1.28-.98-2.31-1.95-3.12-1.03-.8-1.95-1.23-2.74-1.27-.79-.06-1.34-.08-1.62-.06-.97.07-1.88.34-2.74.83-2.2,1.35-3.6,3.66-4.2,6.94-.11.63-.17,1.21-.2,1.73-.02.52,0,1.15.05,1.91.21,3.07,1.12,5.49,2.74,7.24,1.2,1.32,2.68,2.06,4.45,2.26.3.02.65.03,1.03,0,1.73-.11,3.25-.93,4.57-2.48.93-1.07,1.63-2.28,2.09-3.6-2.74-.96-4.11-1.44-4.13-1.44ZM85.93,34.44c-.07,0-.07,0-.07-.05-.01-.18,0-.47.06-.91.19-1.5.58-2.68,1.15-3.53.54-.78,1.15-1.2,1.86-1.25.51-.03.94.09,1.27.36.47.42.48.97.49,1.15.06.88-.4,1.74-1.38,2.58-.84.74-1.76,1.24-2.78,1.52-.27.07-.47.11-.61.12Z"/>
          <path class="cls-3" d="M103.79,17.81c-.01.17-.05.83-.11,1.98-.06.93-.09,1.64-.11,1.7,0,.01-.04.03-.12.04-.11,0-.29,0-.52,0-.28-.01-.48-.01-.55,0-.07,0-.09,0-.11.02-.02.09-.07.68-.11,1.81-.13,2.68-.09,5.62.13,8.81.11,1.71.25,3.15.4,4.32.12.93.28,1.84.47,2.72l.42-.03c-.29-1.66-.5-3.49-.63-5.53-.09-1.31-.14-2.7-.17-4.18-.05-2.22-.01-4.27.1-6.13v-.38c.05-.58.11-.89.15-.92.05-.03.11-.05.15-.05.07,0,.14.02.23.01.17,0,.46.01.87.04.06-.99.13-2.17.19-3.54l.03-.63-.69-.05ZM106.34,40.69l-.46.03.15.83c.31,1.81.47,2.76.48,2.86.07.13-2.49.47-4.36.6l-1.46.1c.11.25.18.4.22.44.06.07.32.08.78.06.32,0,.8-.04,1.44-.08,1.53-.12,2.6-.23,3.21-.33.46-.07.69-.11.7-.15.01-.03.01-.06,0-.09l-.71-4.27Z"/>
          <path class="cls-3" d="M105.67,43.04c-.39-2.28-.59-3.45-.6-3.47l-.99.15-1.36.17c-.11-.31-.22-.81-.34-1.51-.32-1.71-.54-3.66-.7-5.88-.26-3.87-.26-7.49-.04-10.87.03-.48.05-.74.06-.75.01-.02.04-.03.08-.03.17-.01.36-.01.58,0,.34.02.56.02.63.01.01-.03.05-.66.12-1.88.03-.8.08-1.56.13-2.26-1.72-.05-3.32-.03-4.79.07-.92.07-1.78.17-2.58.28l-.21.05c0,.07.26,1.43.78,4.07l.83-.11c-.26,3.23-.25,7.06.05,11.49.15,2.26.28,3.72.36,4.37.21,1.46.44,2.68.68,3.7.25,1.02.58,1.99.95,2.94l.36.9c.58-.01,1.3-.05,2.1-.1.64-.05,1.26-.1,1.86-.15.62-.05,1.06-.11,1.34-.16.3-.05.58-.1.85-.13-.04-.18-.09-.48-.15-.92ZM100.41,39.18s-.01-.03-.02-.09c0-.05,0-.08.01-.08s.03.03.03.08c0,.05-.01.09-.03.09Z"/>
          <path class="cls-3" d="M119.96,29.5c-.05-.77-.22-1.5-.5-2.19-.13-.28-.27-.58-.42-.85-.06-.09-.11-.15-.12-.15v.03c0,.07.05.22.13.45.13.43.22.94.25,1.52.17,2.53-.85,4.79-3.08,6.76l-.38.32c.69.25,1.07.37,1.13.37.15-.01,1.02-.9,1.44-1.44,1.15-1.56,1.68-3.15,1.56-4.82ZM115.17,35.91s-.2.11-.56.31c-.48.3-1.01.58-1.59.84-.57.25-1.07.43-1.47.54-.15.02-.23.07-.23.11,0,.04.09.15.28.31.19.17.36.24.48.23.42-.06.97-.23,1.67-.52.32-.13.5-.23.57-.3.09-.11.23-.29.38-.58.32-.58.48-.89.47-.96h-.01ZM120.77,38.44c-.24-.08-.39-.13-.43-.13l-.05.1c-.5,1.11-1.11,2.09-1.83,2.95-1.14,1.37-2.42,2.27-3.86,2.65-.33.09-.62.14-.83.15-.97.07-1.63.05-2.01-.02l-.46-.07h-.03s.16.09.48.22c.89.34,1.82.49,2.78.42.64-.05,1.25-.18,1.84-.4.68-.29,1.31-.69,1.91-1.21,1.1-.97,1.95-2.15,2.58-3.56.25-.58.38-.88.38-.93h0s-.19-.08-.48-.19ZM113.47,28.04c-.18-.24-.47-.34-.88-.32-.78.05-1.4.7-1.91,1.97-.25.58-.42,1.26-.55,2.05-.02.15-.03.25-.02.3,0,.03.01.04.04.03.1,0,.31-.09.62-.23.11-.05.17-.09.19-.13.03-.03.11-.24.23-.64.37-1.15.88-1.95,1.54-2.44.18-.14.47-.26.87-.42l-.13-.19ZM113.47,28.04c-.18-.24-.47-.34-.88-.32-.78.05-1.4.7-1.91,1.97-.25.58-.42,1.26-.55,2.05-.02.15-.03.25-.02.3,0,.03.01.04.04.03.1,0,.31-.09.62-.23.11-.05.17-.09.19-.13.03-.03.11-.24.23-.64.37-1.15.88-1.95,1.54-2.44.18-.14.47-.26.87-.42l-.13-.19ZM113.47,28.04c-.18-.24-.47-.34-.88-.32-.78.05-1.4.7-1.91,1.97-.25.58-.42,1.26-.55,2.05-.02.15-.03.25-.02.3,0,.03.01.04.04.03.1,0,.31-.09.62-.23.11-.05.17-.09.19-.13.03-.03.11-.24.23-.64.37-1.15.88-1.95,1.54-2.44.18-.14.47-.26.87-.42l-.13-.19Z"/>
          <path class="cls-3" d="M115.84,36.07s-.1.13-.21.37c-.3.67-.66,1.26-1.11,1.75-.55.6-1.06.93-1.54.96-.62.04-1.21-.19-1.79-.68-.25-.23-.5-.52-.73-.88-.11-.16-.16-.26-.16-.3.01-.04.06-.07.17-.08.36-.03.88-.17,1.58-.42.71-.27,1.34-.56,1.91-.89,2.2-1.29,3.66-2.94,4.38-4.95.28-.87.4-1.72.34-2.57-.03-.42-.1-.83-.21-1.26-.33-1.28-.98-2.31-1.95-3.12-1.03-.8-1.94-1.22-2.74-1.27-.78-.06-1.33-.08-1.62-.06-.97.07-1.88.35-2.74.83-2.2,1.35-3.6,3.66-4.2,6.95-.11.63-.17,1.2-.2,1.73-.02.51,0,1.15.05,1.9.21,3.07,1.13,5.49,2.74,7.25,1.2,1.31,2.69,2.06,4.45,2.26.3.02.65.03,1.03,0,1.73-.12,3.25-.94,4.58-2.48.93-1.07,1.62-2.28,2.09-3.6-2.74-.97-4.11-1.44-4.13-1.44ZM109.51,32.86c-.07,0-.07-.01-.07-.05-.01-.18,0-.47.06-.9.19-1.51.58-2.68,1.15-3.54.54-.78,1.16-1.2,1.87-1.25.5-.03.93.09,1.27.36.46.42.48.98.48,1.16.06.88-.4,1.74-1.37,2.58-.84.73-1.77,1.23-2.78,1.51-.26.07-.47.11-.6.13Z"/>
          <path class="cls-3" d="M136.19,28.83c-.19-1.38-.54-2.49-1.03-3.32-.13-.2-.19-.29-.2-.29v.06c.21.65.36,1.18.44,1.59.08.4.15,1.04.21,1.91l-3.88.26c.01.19.05.4.11.6l4.43-.3-.08-.51ZM135.95,36.19c-.05-.64-.13-1.15-.27-1.48-.09-.27-.23-.58-.44-.94-.08-.12-.14-.19-.15-.19v.03c0,.06.03.15.06.29.06.26.11.61.15,1.08.01.47.01.87-.02,1.19-.25,1.78-.98,3.31-2.17,4.6-1.19,1.27-2.67,2.09-4.44,2.47-.23.04-.52.07-.85.1-.54.03-.96.03-1.29-.01-.11-.02-.18-.03-.22-.03-.03,0-.04,0-.04.01,0,.03.14.11.44.23.69.27,1.45.38,2.27.33.21-.01.45-.05.75-.09,1.66-.32,3.06-1.09,4.2-2.31,1.14-1.22,1.82-2.66,2.03-4.35.02-.29.03-.6,0-.93ZM127.52,26.05c-.89.06-1.55.35-2.02.89-.21.3-.3.58-.3.81,0,.24.01.37.01.4.03.52.2.93.49,1.21.05.03.08.06.09.06.03,0,.05-.15.07-.46.06-1.01.59-1.71,1.59-2.11.25-.11.63-.21,1.13-.26l.71-.07c-.5-.37-1.11-.52-1.78-.48ZM129.72,35.72c0-.09-.05-.14-.12-.15-.07-.02-.48-.05-1.24-.07-1.27-.04-2.23-.15-2.91-.28-.27-.04-.4-.05-.44-.05.07.07.38.18.94.35.76.24,1.74.4,2.97.46.42.01.66.03.7.04.09,0,.12-.11.11-.31Z"/>
          <path class="cls-3" d="M134.67,34.94c.05.64-.02,1.33-.19,2.06-.29,1.17-.83,2.21-1.64,3.13-1.39,1.6-3.11,2.46-5.15,2.6-.61.04-1.19-.02-1.74-.16-1.26-.33-2.23-1.1-2.9-2.31-.44-.74-.71-1.53-.8-2.37l-.07-.59,4.39-.3c0,.19.05.38.11.64.07.48.34.72.81.68.15-.01.32-.05.53-.12.47-.14.91-.38,1.31-.7.69-.56,1-1.17.95-1.85-.01-.25-.04-.4-.08-.44-.09-.12-.19-.18-.29-.22-.17-.05-.46-.09-.87-.11-1.7-.07-2.8-.16-3.34-.26-.6-.1-1.17-.25-1.69-.48-1.11-.46-1.98-1.15-2.59-2.05-.7-.99-1.09-2.22-1.19-3.7-.19-2.78.9-4.87,3.28-6.27,1.21-.65,2.45-1.01,3.74-1.09.83-.06,1.67,0,2.52.17.81.21,1.53.52,2.15.97,1.62,1.17,2.62,3,2.98,5.49l.08.53-4.42.3-.06-.48c-.25-1.84-1.23-2.7-2.94-2.58-1.89.19-2.89.99-2.97,2.42v.34c.05.66.28,1.19.68,1.57.25.25.58.43,1,.54.42.09,1.03.17,1.86.18,1.14.03,2.03.11,2.68.24.64.11,1.19.3,1.64.58,1.36.76,2.1,1.96,2.21,3.63Z"/>
        </g>
        <g>
          <path class="cls-2" d="M97.04,54.25c-.01-.46-.09-.95-.22-1.48-.21-.8-.44-1.36-.7-1.66.25.76.39,1.54.41,2.33.01.56,0,.87-.05.93h-.07c-.34.01-1.21-.01-2.62-.09l-.53-.02c-.09,0-.11.03-.1.22,0,.13.03.21.07.22.03,0,1.31.05,3.81.16v-.62ZM97.31,66.88h-.34c-.14.05-.13.26-.2.68-.44,2.85-2.02,4.7-4.72,5.52-.66.18-1.38.28-2.21.3-.71.01-1.33-.04-1.86-.17l-.2-.04s.18.11.54.27c.51.21,1.09.36,1.75.43.09.01.25,0,.52,0,.81-.02,1.44-.07,1.86-.15,1.54-.33,2.73-1.04,3.59-2.12.87-1.07,1.33-2.44,1.36-4.09v-.34h0v-.28h-.1ZM90.84,51.96c-.15-.06-.29-.09-.42-.09-.31,0-.55.03-.71.04-.15.02-.33.09-.53.2-.93.52-1.66,1.53-2.21,3.03-.6,1.65-.89,3.6-.86,5.86.07,2.27.48,4.15,1.28,5.64.04.06.05.1.07.1,0-.03-.05-.19-.15-.52-.38-1.21-.58-2.58-.63-4.13-.03-.98-.01-1.75.05-2.33.23-2.16.72-3.89,1.46-5.19.75-1.31,1.68-2.05,2.78-2.21.19-.02.28-.05.28-.06,0-.11-.14-.23-.4-.34Z"/>
          <path class="cls-2" d="M96.32,65.89v.64c-.04,1.4-.4,2.64-1.1,3.7-.84,1.25-2.13,2.07-3.85,2.45-.3.05-.92.11-1.85.16-.25,0-.4,0-.46,0-.04-.01-.16-.02-.3-.05-.03-.01-.08-.01-.13,0-1.74-.28-3.26-1.28-4.52-3.03-.21-.29-.44-.7-.69-1.2-1.07-2.07-1.64-4.52-1.71-7.38-.01-.25,0-1.05,0-2.4s.38-3.09,1.15-5.21c1.52-3.98,3.95-6.02,7.28-6.11,1.84-.05,3.28.55,4.36,1.8.8.95,1.29,2.18,1.46,3.71.03.26.05.45.05.58,0,.18-.04.28-.15.28h-.04c-.21-.03-.8-.05-1.76-.07-1.21-.05-1.83-.09-1.86-.11-.04-.02-.07-.13-.09-.34-.13-1.05-.52-1.68-1.17-1.9-.21-.07-.47-.09-.81-.09-.29,0-.54.04-.74.11-.48.15-.96.46-1.44.97-.29.3-.51.58-.68.84-.85,1.42-1.4,3.27-1.64,5.54-.07.63-.09,1.45-.05,2.46,0,.48.03.88.08,1.21.32,2.76,1.07,4.69,2.22,5.76.55.53,1.17.78,1.86.76.99-.07,1.68-.3,2.06-.7.4-.38.62-1.01.66-1.86l.03-.41,3.84-.11Z"/>
          <path class="cls-2" d="M96.53,64.9c0,.1.01.19.02.29l.08-.26-.1-.03ZM104.95,58.01c-.67-.18-1.28-.03-1.83.46-.87.7-1.5,1.87-1.93,3.51-.34,1.28-.37,2.48-.13,3.56l.04.11h0s.01-.15.02-.38c.02-.78.13-1.58.35-2.41.09-.37.21-.72.34-1.02.98-2.23,2.23-3.28,3.74-3.14l.3.05c-.3-.56-.48-.64-.9-.74ZM104.95,58.01c-.67-.18-1.28-.03-1.83.46-.87.7-1.5,1.87-1.93,3.51-.34,1.28-.37,2.48-.13,3.56l.04.11h0s.01-.15.02-.38c.02-.78.13-1.58.35-2.41.09-.37.21-.72.34-1.02.98-2.23,2.23-3.28,3.74-3.14l.3.05c-.3-.56-.48-.64-.9-.74ZM104.95,58.01c-.67-.18-1.28-.03-1.83.46-.87.7-1.5,1.87-1.93,3.51-.34,1.28-.37,2.48-.13,3.56l.04.11h0s.01-.15.02-.38c.02-.78.13-1.58.35-2.41.09-.37.21-.72.34-1.02.98-2.23,2.23-3.28,3.74-3.14l.3.05c-.3-.56-.48-.64-.9-.74ZM111.05,64.56s0-.01,0-.03c0,0,0-.01,0-.03,0-.01,0-.03,0-.05.27-1.33.33-2.65.19-3.95-.06-.53-.11-.8-.14-.81-.01.04,0,.2,0,.48.03.57,0,1.27-.09,2.11-.05.32-.16.85-.35,1.58-.25.98-.47,1.66-.62,2.04-.61,1.4-1.34,2.6-2.21,3.58-.59.68-1.27,1.23-2.01,1.67-1.52.93-3.16,1.16-4.88.71l-.11-.02c-.52-.14-.98-.32-1.39-.54l-.08-.03s-.03,0-.03,0c0,.03.12.15.38.35.61.47,1.3.81,2.07,1.01.89.23,1.77.26,2.64.09,2.41-.57,4.31-2.35,5.69-5.35.22-.5.41-.99.57-1.49v-.03c.09-.25.15-.48.22-.73.05-.19.1-.39.13-.58Z"/>
          <path class="cls-2" d="M110.5,62.1c.32-3.24-.38-5.63-2.09-7.19-.58-.53-1.34-.93-2.29-1.18-1.79-.44-3.44-.21-4.94.71-1.5.91-2.71,2.42-3.62,4.51-.22.5-.43,1.18-.66,2.03-.09.37-.17.7-.21.97-.15,1.06-.21,2.04-.15,2.96l.1.03-.08.26h0c.15,1.67.68,3.09,1.57,4.27.79.95,1.77,1.58,2.94,1.89.87.23,1.74.26,2.64.09,2.47-.58,4.4-2.46,5.81-5.64.19-.48.38-1.09.59-1.84.19-.74.32-1.36.38-1.86ZM105.34,65.48c-.76,1.24-1.6,1.96-2.5,2.13-.21.04-.39.04-.55,0l-.3-.07c-.76-.2-1.24-.88-1.48-2.05-.23-1.25-.18-2.51.16-3.78.42-1.62,1.15-2.86,2.18-3.74.72-.54,1.47-.73,2.23-.53.92.24,1.45,1.01,1.59,2.32.1.86.08,1.57-.04,2.15-.13.58-.2.92-.23,1.05-.23.88-.59,1.73-1.05,2.52Z"/>
          <path class="cls-2" d="M111.15,62.51c0,.15,0,.3,0,.45,0,.3.02.61.03.9,0-.26,0-.5,0-.76,0-.2-.01-.4-.03-.6ZM118.78,57.9c-.17-.44-.28-.42-.37-.42-.08,0-.18.04-.28.11-.74.49-1.36,1.62-1.85,3.39-.39,1.55-.58,3.13-.54,4.73.01.63.07,1.51.18,2.64.12,1.24.24,2.23.38,2.97l-1.05.22-2.41.49c.01.44.07.66.17.65.06,0,.68-.13,1.87-.36,1.19-.24,1.8-.36,1.82-.36s.03-.02.02-.09v-.19c-.25-1.76-.38-3.45-.43-5.07v-.59c.11-2.97.7-5.28,1.76-6.94.3-.43.56-.72.78-.85.03-.03.05-.05.05-.07,0-.03-.03-.1-.08-.23ZM124.93,69.78c-.05-3.52-.08-5.6-.1-6.27-.04-1.38-.09-2.35-.15-2.9-.2-1.72-.58-3.11-1.11-4.13l-.06-.09h0c0,.07.05.28.16.64.2.74.36,1.64.5,2.72.05.42.08,1.35.12,2.79.03,1.17.09,4.17.16,8.98l-3.38.11v.53s3.9-.11,3.9-.11c-.01-.68-.03-1.45-.03-2.28Z"/>
          <path class="cls-2" d="M123.83,67.4c-.01-2.43-.03-3.91-.05-4.43-.03-1.36-.1-2.48-.2-3.37-.25-2.5-.91-4.24-1.97-5.27-.76-.77-1.7-1.19-2.84-1.27-.16,0-.3-.01-.44-.01-1.54.04-2.61,1.07-3.23,3.07l-.17.52v-.03c0-.07.02-.4.07-.98.05-.52.06-.83.06-.97,0-.02-.01-.03-.03-.05-.01,0-.21-.02-.59-.04-.37-.03-.81-.05-1.31-.07-.97-.06-1.66-.09-1.84-.09-.06,0-.06-.07-.09.3,0,.18-.03.4-.03.66-.08,2.38-.09,4.72-.03,7.03,0,.02,0,.03,0,.05,0,.01,0,.02,0,.03,0,.01,0,.02,0,.03.02.2.03.4.03.6,0,.25,0,.5,0,.76v.03c.11,3.43.32,5.95.64,7.57.05.19.02.17.05.17.11,0,.5-.07,1.19-.21,1.7-.34,2.55-.5,2.56-.5s.01-.03,0-.09l-.17-1.38c-.15-1.36-.24-2.55-.27-3.56-.05-1.66.09-3.17.43-4.52.55-2.25,1.29-3.68,2.25-4.26.14-.08.32-.12.54-.13.18,0,.3,0,.36.03.66.36,1.03,2.25,1.13,5.68l.12,8.45,3.85-.11-.04-3.62ZM113.14,68.45h-.03c0-.08,0-.12.01-.12s.03.03.03.07c0,.03,0,.04-.01.05ZM121.14,57.06h-.01s-.01-.03-.01-.07c0-.03,0-.05,0-.05s.03.02.03.07c0,.02,0,.03,0,.05Z"/>
          <path class="cls-2" d="M139.23,50.98c-.4-.19-.7-.27-.85-.27-.03,0-.04,0-.05.01-.08.17-.14,1.64-.16,4.46-.01,1.66-.01,3.03.02,4.13.01.6.01.62.07.62l.43-.1v-.83c.01-1.35.01-2.21,0-2.57.03-1.97.07-3.44.13-4.4.02-.53.05-.82.07-.87,0-.01.06-.01.13-.02.2.02.58.05.58.05,0-.01-.13-.08-.38-.21ZM139.23,50.98c-.4-.19-.7-.27-.85-.27-.03,0-.04,0-.05.01-.08.17-.14,1.64-.16,4.46-.01,1.66-.01,3.03.02,4.13.01.6.01.62.07.62l.43-.1v-.83c.01-1.35.01-2.21,0-2.57.03-1.97.07-3.44.13-4.4.02-.53.05-.82.07-.87,0-.01.06-.01.13-.02.2.02.58.05.58.05,0-.01-.13-.08-.38-.21ZM147.31,56.39c-.02-.74-.11-1.44-.25-2.09-.03-.12-.05-.24-.09-.35-.09-.3-.18-.6-.29-.89-.12-.32-.26-.66-.42-.99-.07-.15-.11-.22-.13-.22l.12.43c.33,1.03.52,2.06.54,3.07.02.72-.03,1.44-.17,2.15-.39,2.03-1.25,3.7-2.61,4.98-1.36,1.29-3.07,2.07-5.17,2.38l-.55.07c.09,2.03.15,3.45.17,4.25.02.76.03,1.72.03,2.84l-3.35.05.03.48s.17,0,.46,0l3.42-.02-.19-7.11c1.39-.04,2.7-.36,3.93-.97,2.57-1.34,4.07-3.56,4.49-6.64.05-.42.06-.91.05-1.45ZM133.28,51.62h-.02c-.1,0-.3.21-.62.61-.36.46-.58,1.02-.7,1.66-.07.42-.11.97-.1,1.64v1.01s-3.4.09-3.4.09v.54s3.88-.11,3.88-.11l.02-.62c.05-1.48.29-2.58.75-3.3.08-.13.14-.26.16-.42.03-.35.04-.72.03-1.1ZM139.23,50.98c-.4-.19-.7-.27-.85-.27-.03,0-.04,0-.05.01-.08.17-.14,1.64-.16,4.46-.01,1.66-.01,3.03.02,4.13.01.6.01.62.07.62l.43-.1v-.83c.01-1.35.01-2.21,0-2.57.03-1.97.07-3.44.13-4.4.02-.53.05-.82.07-.87,0-.01.06-.01.13-.02.2.02.58.05.58.05,0-.01-.13-.08-.38-.21Z"/>
          <path class="cls-2" d="M146.23,54.96c-.16-1.84-.7-3.47-1.62-4.88-.91-1.43-2.11-2.48-3.6-3.19-1.01-.49-2.25-.72-3.72-.68-3.58.1-6.15,1-7.69,2.71-1.44,1.53-2.16,3.65-2.18,6.39v.81s3.82-.1,3.82-.1l.02-.57c.02-1.88.44-3.18,1.25-3.92.25-.24.53-.43.83-.6.32-.17.49-.25.51-.25h.01c0,.11,0,.38-.03.83-.07,1.36-.1,2.95-.09,4.8,0,1.54.12,6.61.34,15.25l3.86-.06-.19-7.1c.47-.01.83-.04,1.07-.08,2.1-.31,3.81-1.17,5.1-2.56.62-.64,1.11-1.37,1.48-2.19.6-1.32.88-2.71.84-4.17l-.02-.44ZM138.3,60.46l-.64.09-.02-1.97c-.03-3.08,0-5.53.1-7.35v-.25c.03-.54.06-.81.09-.84.03-.03.07-.04.11-.04.06,0,.11.01.15.02,1,.11,1.85.5,2.57,1.18.76.74,1.23,1.51,1.42,2.29.21.78.3,1.4.32,1.86.01.64-.06,1.29-.25,1.92-.57,1.78-1.86,2.82-3.84,3.1Z"/>
          <path class="cls-2" d="M161.57,61.72c-.08-3.02-.52-5.47-1.33-7.32-.11-.25-.2-.42-.28-.54v-.03s-.03-.03-.03-.03v.03s.01.04.01.04c.64,1.89,1,4.12,1.07,6.68.09,3.23-.17,6.7-.75,10.42-.11.72-.2,1.07-.25,1.07,0,0-.52-.09-1.49-.27-.98-.18-1.5-.28-1.54-.27-.06,0-.09.04-.09.12,0,.04.03.12.11.13.09.03.88.18,1.88.36.97.19,1.76.34,1.78.34.08-.05.25-1.04.48-2.95.34-2.8.49-5.39.42-7.77ZM154.81,62.32c-.32-.12-.57-.19-.75-.19h-.24c-.18,0-.35.03-.49.07-.97.3-1.47,1.03-1.49,2.17.01.48.15.85.42,1.14.03.03.05.06.06.06.03,0,.05-.12.05-.36.1-1.52,1.05-2.5,2.53-2.58.25,0,.37-.02.37-.05-.04-.06-.19-.14-.46-.25ZM155.34,71.17c-.08-.03-.13-.06-.13-.09v-.05c.04-.21.06-.32.06-.37,0-.03-.01-.04-.03-.04h-.03c-.12.05-.37.11-.76.18-.32.06-.58.09-.74.09-.61.02-1.19-.04-1.76-.16l-.46-.09s.13.09.41.21c.79.34,1.58.51,2.41.5h.48c.56-.03.83-.07.83-.11,0-.02-.1-.05-.29-.07ZM154.81,62.32c-.32-.12-.57-.19-.75-.19h-.24c-.18,0-.35.03-.49.07-.97.3-1.47,1.03-1.49,2.17.01.48.15.85.42,1.14.03.03.05.06.06.06.03,0,.05-.12.05-.36.1-1.52,1.05-2.5,2.53-2.58.25,0,.37-.02.37-.05-.04-.06-.19-.14-.46-.25ZM154.36,54.19c-.15-.09-.36-.14-.64-.13-.53.01-1.03.13-1.51.38-.55.26-.95.72-1.21,1.34-.15.33-.23.52-.23.58,0,.03.12.11.35.19.23.08.36.13.38.13s.08-.11.18-.32c.52-1.01,1.42-1.6,2.72-1.78l.37-.05c-.19-.17-.33-.28-.42-.34ZM154.81,62.32c-.32-.12-.57-.19-.75-.19h-.24c-.18,0-.35.03-.49.07-.97.3-1.47,1.03-1.49,2.17.01.48.15.85.42,1.14.03.03.05.06.06.06.03,0,.05-.12.05-.36.1-1.52,1.05-2.5,2.53-2.58.25,0,.37-.02.37-.05-.04-.06-.19-.14-.46-.25ZM146.98,53.95c-.07.15-.1.23-.1.26,0,0,.07.04.19.09-.03-.12-.05-.24-.09-.35Z"/>
          <path class="cls-2" d="M160.49,60.75c-.07-2.6-.38-4.71-.93-6.3-1.12-3.29-3.11-4.89-5.98-4.81-.21,0-.43.03-.66.04-2.76.36-4.7,1.72-5.85,4.07-.03.08-.07.15-.09.21.03.11.06.23.09.35.66.3,2.89,1.19,3.35,1.34.04,0,.11-.11.21-.34.4-.8,1.09-1.34,2.06-1.62.32-.09.68-.14,1.05-.15.31,0,.57.03.78.11.25.11.48.3.7.6.56.75.97,1.9,1.19,3.45.05.23.06.36.06.42,0,.06-.02.05-.03.05h-.03c-.44-.17-.92-.3-1.4-.39-.35-.05-.76-.08-1.25-.07-.48.01-.89.06-1.27.13-2.06.5-3.55,1.72-4.45,3.66-.42.87-.62,1.8-.59,2.82.02.71.1,1.29.22,1.74.09.38.26.78.49,1.19.6,1.19,1.52,2.04,2.72,2.56.77.37,1.67.54,2.71.51.75-.02,1.39-.15,1.93-.37l.46-.17c-.05.4-.14.57-.13.89.01.01.64.15,1.87.38l1.89.34s.09-.28.22-1.2c.52-3.37.75-6.52.67-9.45ZM156.51,64.06c-.13.27-.42.65-.88,1.16-.78.83-1.43,1.19-2.16,1.21-1.3.04-2.15-.79-2.18-2.05,0-.17,0-.34.03-.51.26-1.41,1.12-2.17,2.54-2.28.74-.01,1.4.27,2.03.83.46.38.68.79.7,1.24,0,.15-.02.3-.07.41ZM158.35,66.2h0s0-.04-.01-.07c0-.05,0-.07.01-.07s.03.03.03.07-.01.07-.02.07Z"/>
          <path class="cls-2" d="M159.93,53.8v.03h.02l-.02-.03ZM160.74,54.33l.07.57c.61-.07.91-.1.92-.11.01,0,.02-.19.05-.56-.68.05-1.02.09-1.03.1ZM169.5,51.01c-.24,2.32-.37,3.48-.41,3.48-.12,0-.77-.04-1.95-.14l-.41-.02c-.01.07-.03.55-.05,1.43-.03,2.05-.02,4.19.04,6.45.09,3.33.27,5.68.5,7.02l.07.54s-.75.15-1.72.36c-.48.09-.88.17-1.21.24-.32.07-.48.11-.48.11-.01.01-.01.07,0,.2.03.31.06.46.08.46l1.91-.39c1.19-.23,1.78-.36,1.8-.37.04-.01.05-.06.05-.13l-.14-1.29c-.13-1.05-.24-3.37-.34-6.96-.05-1.73-.05-3.64-.02-5.74.01-.81.03-1.31.05-1.48,1.34.08,2.17.15,2.45.19.06-.49.11-.94.15-1.34.02-.11.03-.22.04-.32,0,0,0,0,0-.01.14-1.28.21-2.02.2-2.23,0,0-.21-.03-.62-.05ZM167.57,47.06c-.12-.02-.23-.03-.31-.03-.09,0-.17.77-.28,2.31l.27.03h.25c.09,0,.12-.07.11-.23.01,0,.01-.03.01-.06.04-.41.11-1.04.24-1.88v-.02s-.09-.09-.29-.11Z"/>
          <path class="cls-2" d="M169.01,50.05c0,.23-.04.81-.13,1.74-.1,1.09-.18,1.78-.22,2.03v.1s-1.79-.15-1.79-.15c-.23,0-.46-.01-.67,0-.13,1.14-.13,3.97-.01,8.5.09,3.09.23,5.39.45,6.94v.1s.02.03,0,.05c0,0-.58.13-1.76.36l-1.86.38h-.05c-.06,0-.1-.03-.11-.09-.04-.16-.11-.62-.19-1.38-.08-.76-.15-1.44-.17-2.06-.11-1.67-.17-3.05-.2-4.17-.08-3.05-.08-5.95.01-8.72-.7.01-1.29.05-1.74.09-.25.03-.46.04-.64.05l-.02-.03v.03s-.1,0-.15,0c-.01-.04-.1-.68-.27-1.91-.17-1.17-.24-1.8-.25-1.91.11-.04,1.2-.13,3.25-.27.22-2.84.38-4.25.5-4.25.03,0,.66.1,1.9.3,1.12.19,1.75.3,1.86.34,0,.08-.03.36-.1.83-.07.57-.13,1.14-.19,1.72-.07.64-.09,1.03-.09,1.15l2.16.16c.47.03.44.06.45.06Z"/>
          <path class="cls-2" d="M169.81,53.59s.03.02.07.04c.02-.11.03-.22.04-.32-.07.17-.11.25-.11.28ZM177.74,61.71c-.31-.13-.57-.19-.75-.2h-.24c-.18.01-.34.03-.49.07-.97.3-1.47,1.03-1.49,2.17.01.47.16.85.42,1.14.04.03.05.05.06.05.03,0,.05-.12.05-.36.1-1.51,1.06-2.49,2.53-2.58.25,0,.37-.02.37-.05-.04-.06-.19-.14-.46-.24ZM177.29,53.56c-.15-.09-.36-.13-.64-.13-.52.01-1.03.14-1.51.38-.54.27-.95.72-1.21,1.34-.15.33-.23.52-.23.58,0,.04.13.11.35.2.23.08.36.12.38.12s.08-.11.19-.32c.51-1.01,1.42-1.6,2.72-1.78l.37-.05c-.19-.18-.33-.28-.42-.34ZM177.74,61.71c-.31-.13-.57-.19-.75-.2h-.24c-.18.01-.34.03-.49.07-.97.3-1.47,1.03-1.49,2.17.01.47.16.85.42,1.14.04.03.05.05.06.05.03,0,.05-.12.05-.36.1-1.51,1.06-2.49,2.53-2.58.25,0,.37-.02.37-.05-.04-.06-.19-.14-.46-.24ZM178.28,70.55c-.09-.02-.14-.06-.14-.09v-.05c.05-.21.07-.33.06-.38,0-.03,0-.04-.02-.03h-.04c-.12.05-.36.11-.76.18-.32.05-.57.09-.74.09-.61.01-1.19-.05-1.76-.16l-.46-.09s.13.08.42.21c.79.34,1.58.52,2.41.5h.48c.56-.03.83-.06.83-.11,0-.03-.09-.05-.28-.08ZM177.74,61.71c-.31-.13-.57-.19-.75-.2h-.24c-.18.01-.34.03-.49.07-.97.3-1.47,1.03-1.49,2.17.01.47.16.85.42,1.14.04.03.05.05.06.05.03,0,.05-.12.05-.36.1-1.51,1.06-2.49,2.53-2.58.25,0,.37-.02.37-.05-.04-.06-.19-.14-.46-.24ZM184.5,61.1c-.02-.83-.07-1.62-.15-2.37h0c-.09-.81-.2-1.57-.35-2.27-.21-1-.48-1.89-.82-2.68-.12-.25-.21-.43-.28-.55l-.04-.05v.06c.65,1.89,1.01,4.12,1.08,6.69.09,3.23-.17,6.69-.75,10.41-.11.72-.2,1.07-.25,1.07-.01,0-.52-.1-1.5-.28-.97-.18-1.49-.27-1.54-.27-.06,0-.09.04-.09.13,0,.03.03.12.11.13.1.03.88.18,1.88.36.97.19,1.76.34,1.78.34.09-.05.25-1.03.48-2.95.34-2.8.49-5.38.43-7.77Z"/>
          <path class="cls-2" d="M183.42,60.12c-.07-2.6-.38-4.7-.92-6.3-1.12-3.28-3.12-4.88-5.98-4.81-.22,0-.44.03-.66.05-2.76.36-4.7,1.72-5.85,4.06-.03.07-.05.12-.08.17,0,0,0,.01,0,.01-.01.11-.02.21-.04.32.44.21,2.97,1.23,3.48,1.38.03,0,.1-.11.21-.34.4-.8,1.09-1.34,2.05-1.62.32-.09.68-.14,1.05-.15.31-.01.56.03.77.11.25.1.49.3.7.6.56.75.96,1.89,1.18,3.45.05.23.06.36.06.42,0,.07-.02.05-.03.05h-.02c-.45-.17-.92-.3-1.4-.4-.35-.05-.76-.07-1.25-.06-.48,0-.89.06-1.27.13-2.06.5-3.55,1.72-4.45,3.66-.42.87-.61,1.81-.58,2.82.02.72.09,1.29.21,1.74.09.38.27.78.49,1.2.61,1.18,1.52,2.04,2.72,2.56.76.36,1.66.54,2.71.5.74-.02,1.38-.15,1.93-.36l.46-.17c-.05.4-.15.58-.13.9.01.01.64.14,1.87.37l1.89.35s.09-.28.23-1.21c.52-3.37.74-6.51.66-9.45ZM179.44,63.44c-.13.27-.42.66-.88,1.17-.78.83-1.43,1.19-2.16,1.21-1.29.03-2.15-.79-2.18-2.06,0-.17,0-.34.03-.51.27-1.4,1.12-2.17,2.54-2.28.73,0,1.4.27,2.03.83.45.38.68.8.69,1.24,0,.16-.01.3-.07.41ZM181.28,65.58h0s-.01-.03-.01-.07c0-.05,0-.07,0-.07.01,0,.03.03.03.07,0,.05,0,.07-.02.07Z"/>
          <path class="cls-2" d="M197.96,57.55c-.11-1.22-.38-2.21-.78-2.94-.11-.18-.15-.27-.17-.27v.05c.16.58.27,1.05.32,1.41.06.36.1.91.12,1.68l-3.41.09c0,.17.03.35.07.53l3.89-.11-.05-.44ZM197.31,62.67c-.07-.25-.19-.52-.36-.84-.07-.11-.11-.17-.13-.17v.03s.01.13.04.25c.05.23.08.54.09.95,0,.41-.01.76-.05,1.04-.28,1.56-.98,2.87-2.07,3.96-1.09,1.07-2.41,1.73-3.98,2-.2.03-.45.05-.76.06-.46.01-.83,0-1.13-.05-.09-.02-.16-.03-.19-.03-.03,0-.03,0-.03.01,0,.03.12.09.38.21.59.26,1.25.39,1.97.37.18,0,.4-.02.66-.05,1.47-.22,2.72-.85,3.76-1.87,1.04-1.03,1.69-2.27,1.93-3.74.03-.25.05-.52.04-.81-.02-.57-.08-1.01-.18-1.31ZM190.47,54.81c-.78.02-1.38.25-1.81.71-.19.26-.28.5-.29.7,0,.21,0,.32,0,.35.01.46.14.81.38,1.07.04.04.07.06.07.06.03,0,.06-.13.09-.4.09-.89.58-1.48,1.46-1.8.23-.09.56-.16,1-.19l.62-.04c-.42-.34-.95-.5-1.53-.48ZM191.95,63.22c-.06-.03-.42-.07-1.08-.11-1.11-.08-1.95-.2-2.54-.34-.23-.04-.35-.06-.38-.06.06.06.33.17.81.34.65.24,1.51.41,2.58.51.37.03.58.05.62.06.07,0,.11-.09.1-.27,0-.07-.04-.12-.1-.13ZM184,56.46v.17c.02.77.13,1.46.35,2.09-.09-.8-.2-1.56-.35-2.26Z"/>
          <path class="cls-2" d="M196.42,62.83c.01.57-.07,1.17-.25,1.8-.29,1.01-.81,1.91-1.54,2.7-1.27,1.35-2.81,2.05-4.6,2.09-.54.01-1.05-.06-1.52-.2-1.09-.34-1.91-1.04-2.45-2.13-.36-.67-.57-1.36-.62-2.1l-.04-.52,3.85-.11c0,.16.03.34.07.57.05.42.28.63.69.62.13,0,.28-.03.46-.09.42-.11.81-.3,1.17-.56.62-.46.92-.99.91-1.59,0-.21-.02-.34-.06-.38-.07-.11-.16-.17-.25-.2-.15-.05-.4-.1-.76-.13-1.48-.11-2.44-.23-2.91-.34-.52-.11-1.01-.26-1.46-.48-.96-.44-1.7-1.08-2.2-1.89-.23-.36-.42-.75-.56-1.17h0c-.09-.81-.2-1.57-.35-2.27-.02-2.35,1.01-4.09,3.09-5.21,1.07-.52,2.19-.8,3.31-.83.73-.02,1.46.06,2.2.25.7.21,1.32.51,1.85.91,1.38,1.09,2.19,2.72,2.42,4.91l.05.47-3.88.11-.03-.42c-.15-1.62-.98-2.41-2.48-2.37-1.66.09-2.57.76-2.69,2.01v.3c0,.58.19,1.05.52,1.4.21.23.49.4.85.51.36.1.9.18,1.62.22,1,.07,1.78.17,2.33.3.56.12,1.03.31,1.42.56,1.17.71,1.78,1.8,1.82,3.25Z"/>
        </g>
      </g>
      <g>
        <path class="cls-6" d="M57.9,15.97h.04c.26-.01.4.17.42.55l.03.7c.02.49.04,1.05.05,1.68.03.72-.03.92.27,1.65v.17c-.09.15-.21.23-.35.24-.33.01-.38.06-.64-.92h-.02c-.4.66-.82,1-1.27,1.02h-.13c-.36.02-.68-.22-.97-.73-.25-.51-.41-1.35-.46-2.53-.04-1.04.03-1.57.24-1.58,0-.02.06-.04.17-.06.19,0,.34.08.45.28.01.62.03,1.11.04,1.46v.05c.06,1.31.25,2.11.59,2.41.01,0,.02,0,.02.02.29-.12.61-.49.96-1.11.16-.3.24-.5.24-.6v-.28c-.08-1.51-.07-2.27.02-2.27.1-.09.2-.14.3-.14Z"/>
        <path class="cls-6" d="M59.53,15.68h.02c.22-.01.35.1.41.33-.04.87-.05,1.4-.04,1.61v.05s.02,0,.02,0c.19-.62.52-1.15.98-1.59.34-.26.63-.4.88-.41h.09c.34-.02.64.2.9.64.16.33.36,1.7.61,4.11,0,.14-.11.25-.36.33-.3.01-.47-.24-.49-.77-.29-1.99-.48-3.14-.56-3.45-.08-.11-.14-.18-.18-.2-.34.08-.69.48-1.04,1.21-.44,1.23-.64,2.27-.61,3.13-.06.16-.18.25-.34.25-.28.01-.44-.19-.51-.61-.11-.54-.18-1.03-.19-1.47l-.05-1.09c-.03-1.29.03-1.94.18-1.95.07-.09.16-.14.28-.14Z"/>
        <path class="cls-6" d="M66.98,13.65h.04c.22-.01.36.11.41.37.1,2.37.18,4.14.39,6.08.02.37-.08.56-.28.57-.05,0-.08.01-.11.02-.28.01-.43-.25-.45-.79l-.03-.73c-.55.97-1.19,1.47-1.92,1.5-.35.01-.68-.17-.98-.55-.1-.19-.15-.38-.16-.57v-.29c-.04-.69.24-1.53.84-2.49.43-.56.91-.85,1.42-.87.13,0,.3.04.53.12l-.05-1.12c-.03-.74.01-1.11.13-1.11.05-.08.13-.12.21-.12ZM64.79,19.66c.04.22.13.33.28.32h.04c.43-.02.86-.48,1.29-1.37.19-.4.27-.82.25-1.27v-.06s.01-.11.01-.11c-.19-.37-.36-.56-.5-.55-.3.08-.59.38-.88.91-.36.74-.53,1.45-.5,2.13Z"/>
        <path class="cls-6" d="M70.69,15.73h.17c.07-.01.19.01.37.07.1-.05.18-.08.26-.08h.07c.16,0,.27.08.32.28v1.66c.03.53.13,1.16.56,2.42v.11c.01.12-.09.2-.29.25h-.09c-.23.01-.31-.03-.48-.66-.01,0-.11-.28-.3-.84-.32.41-.59.73-.83.96-.29.21-.54.32-.75.33h-.04c-.54.03-.87-.33-1.01-1.06l-.02-.41c-.04-.85.31-1.67,1.03-2.46.38-.36.72-.55,1.02-.56ZM69.49,18.82v.09s0,.02-.02.02l.02.04v.09c.04.34.11.51.2.51.57-.34,1.03-.96,1.36-1.87,0-.11,0-.49,0-1.13-.05-.08-.12-.12-.22-.12h-.02c-.25.01-.57.34-.96.98-.25.52-.37.98-.36,1.38Z"/>
        <path class="cls-6" d="M74.89,15.52c.59.03.98.44,1.14,1.23.02.07.03.17.02.3-.03.31-.16.45-.37.44h-.09c-.21-.02-.33-.26-.34-.73-.11-.27-.22-.43-.35-.48h-.04c-.28-.02-.59.42-.91,1.31-.03,0-.08.24-.14.73-.07.69.11,1.15.54,1.37.1.03.18.05.25.05.46.03.97-.48,1.55-1.52.11-.08.21-.12.32-.11h.02c.21.01.31.12.32.33-.08.3-.36.73-.83,1.31-.48.49-.99.72-1.51.69-.54-.03-1-.34-1.37-.91-.17-.41-.25-.77-.22-1.09l.05-.46c.07-.75.4-1.44.97-2.07.34-.28.68-.41,1-.38Z"/>
        <path class="cls-6" d="M77.79,15.16c.14,0,.27.08.38.26-.01.72,0,1.32.01,1.79.02.52.1,1.42.23,2.71-.04.22-.17.34-.38.35h-.04c-.24.01-.38-.18-.42-.57-.14-.91-.23-1.84-.27-2.78-.05-1.12.04-1.68.28-1.69,0-.02.07-.05.22-.06ZM77.61,13.91c.25.01.38.11.38.28,0,.18-.12.29-.38.33-.21-.04-.31-.12-.32-.24v-.11c-.01-.13.1-.21.31-.25Z"/>
        <path class="cls-6" d="M81.01,15.23h.09c.55-.03.99.26,1.3.85.05.19.08.32.08.38v.28c.04.57-.11,1.18-.43,1.83-.31.51-.68.85-1.11,1.03-.14.06-.24.08-.3.09h-.09c-.54.03-.98-.26-1.3-.86-.11-.27-.18-.56-.19-.86-.03-.8.15-1.53.56-2.2.08-.1.28-.16.58-.17.23-.22.5-.34.81-.35ZM81.97,13.09c.21.05.3.2.26.44-.05.13-.34.32-.86.57-.69.42-.59.32-.76.3l-.25-.07c-.1-.12-.14-.23-.11-.3l.02-.07c.03-.07-.17.03.51-.33.61-.41,1.01-.59,1.19-.54ZM79.93,18.07v.02c.03.57.24.89.65.95.38-.15.69-.47.92-.96.2-.47.29-.94.27-1.4-.02-.35-.13-.58-.36-.69-.09-.06-.21-.08-.35-.08,0,0-.59-.12-.82.6,0,0-.36.82-.31,1.55Z"/>
        <path class="cls-6" d="M83.63,14.58h.02c.22-.01.35.1.41.33-.04.87-.05,1.4-.04,1.61v.05s.02,0,.02,0c.19-.62.52-1.15.98-1.59.34-.26.63-.4.88-.41h.09c.34-.02.64.2.9.64.16.33.36,1.7.61,4.11,0,.14-.11.25-.36.33-.3.01-.47-.25-.49-.77-.29-1.99-.48-3.14-.56-3.45-.08-.11-.14-.18-.18-.2-.34.08-.69.48-1.04,1.21-.44,1.23-.64,2.27-.61,3.13-.06.16-.18.25-.34.25-.28.01-.44-.19-.51-.61-.11-.54-.18-1.03-.19-1.47l-.05-1.09c-.03-1.29.03-1.94.18-1.95.07-.09.16-.14.28-.14Z"/>
        <path class="cls-6" d="M55.2,14.32c-.01.24-.21.41-.45.41-.7-.04-2.24.14-3.41.3l.28,2.59c.72-.14,1.6-.29,2.23-.33.24-.01.44.17.46.4.02.24-.16.44-.4.46-.6.04-1.49.2-2.19.33l.26,2.48c.03.24-.15.45-.38.48h-.05c-.22,0-.4-.16-.42-.38l-.26-2.41c-.15.03-.24.05-.24.05-.03,0-.07.01-.1.01-.19,0-.37-.13-.42-.34-.05-.23.09-.46.32-.51.02,0,.15-.03.34-.08l-.28-2.64c-.34.05-.57.09-.63.11-.03,0-.06,0-.09,0-.2,0-.38-.13-.42-.33-.05-.23.08-.46.31-.51.11-.03,3.84-.62,5.14-.56.23,0,.42.21.4.45Z"/>
      </g>
      <g>
        <path class="cls-4" d="M155.72,15.31c-.11-.15-.91-.48-1.13-.56-4.4-1.6-8.92,1.09-10.29,5.4-1.75,5.47,1.56,11.16,5.15,15.05.05.02.16.05.19.03.04-.03.39-.75.44-.87.71-1.68.87-3.16-.86-4.18-2.19-1.3-3.73-1.42-4.19-4.41-.07-.44-.08-1.65.15-2,.32-.48,2.05-.85,2.61-1.32.35-.29.49-.75.8-1.07,1.17-1.24,2.61-.73,4.01-1.04.75-.17.93-.58,1-1.31.04-.44-.13-.97-.07-1.35.13-.81,1.41-.32,1.92-.12,2.01.78,3.72,2.65,4.57,4.6.69.14,1.35.02,2.05.15,1,.19,1.6.57,2.48.91,1.92.74,4.04-1.44,6.42-.77.87.24.95,1.01,1.12,1.79.37,1.7.74,3.79-.97,4.85-1.04.64-1.89.9-2.83,1.81-1.7,1.66-.94,2.71-.9,4.68,0,.12-.12.62.01.64s1.82-1.42,2.05-1.63c3.44-3.09,6.14-7.6,4.85-12.38-1.02-3.76-4.58-6.44-8.54-5.93-.17.02-.92.16-1.01.23s-.13.34-.26.51c-.23.29-1.68.85-2.03.82-.84-.08-1.27-1.08-.74-1.75.23-.3,1.82-.9,2.16-.81.17.05.33.22.52.23.23,0,.86-.19,1.18-.23,5.98-.74,10.55,4.46,10.04,10.24-.75,8.42-10.3,14.07-17.47,16.61-.46.16-1.18.52-1.64.34-.3-.12-1.22-.84-1.55-1.08-1.09-.78-2.21-1.67-3.23-2.55-.37-.32-1.38-.98-.96-1.52.11-.14,1.68-.91,2-1.12.72-.46,1.54-1.13,2.09-1.78.25-.29.64-1.04.84-1.21.35-.3.93.04.86.46-.04.21-.54.93-.7,1.14-.71.94-1.95,1.94-2.97,2.54-.11.06-.68.29-.7.32-.1.13.09.29.17.37.61.62,1.75,1.45,2.47,2,.27.2,1.92,1.41,2.08,1.42,1.96-.66,3.94-1.46,5.79-2.4.78-.39,2.32-1.15,2.86-1.77,1.28-1.48.49-2.5.55-4.08.05-1.24.43-1.97,1.26-2.85.16-.16.85-.61.46-.74-.36-.12-1.31-.34-1.04-.93.31-.68.88-.13,1.29-.02.94.26,2.93-.23,3.2-1.32.14-.59.08-1.33-.02-1.93-.16-.97-.13-.5-.84-.6-.35-.05-.88-.31-1.1-.59-.1-.14-.28-.65-.4-.7-.15-.06-2.16.72-2.56.8-1.98.39-2.99-.81-4.86-1.05-.13-.02-.96-.06-1.01-.04-.08.04-.09.15-.09.23,0,.27.17.76.19,1.1.16,2.13-.68,4.97-2.31,6.43-2.32,2.07-5.26.09-5.11-2.78s2.27-4.74,4.82-5.62c.2-.07.89-.15.92-.36.01-.12-.84-1.39-.99-1.57-.55-.68-1.5-1.47-2.28-1.87-.2-.11-1-.59-1.02-.2-.05,1.15-.06,2.12-1.28,2.59-1.1.43-2.39.04-3.48.54-.81.37-.92,1.21-1.7,1.73-.57.38-1.5.49-1.96.82-.43.31-.15,1.48-.02,1.94.56,1.99,1.9,2.15,3.49,3.05,2.49,1.4,2.19,3.87,1.01,6.12-.24.47-.7,1.51-1.34,1.17-.25-.14-.92-.91-1.15-1.17-3.35-3.76-6.16-9-5.23-14.21,1.01-5.68,6.71-9.5,12.27-7.26.28.11.87.48,1.08.53.19.04.39-.08.56-.09.39,0,1.71.97,1.88,1.34.37.77-.34,1.66-1.16,1.49-.35-.07-1.57-.96-1.72-1.28-.08-.17-.08-.47-.17-.6ZM159.37,23.43c-.12-.15-.97.1-1.17.17-2.13.68-3.92,2.47-3.99,4.8-.05,1.48,1.39,3.01,2.89,2.21,1.61-.86,2.46-3.64,2.53-5.34.01-.29-.11-1.64-.26-1.83Z"/>
        <path class="cls-4" d="M163.29,25.61c.41.04,1.54.59,1.19,1.11-.23.34-.62-.18-.82-.29-.18-.11-.35-.19-.56-.17-.66.08-.29.75-.6,1.06-.21.21-.53.05-.55-.23-.04-.81.46-1.57,1.33-1.48Z"/>
        <path class="cls-4" d="M150.71,23.16c.45.59-.34,1.42-.9.84-.6-.62.41-1.48.9-.84Z"/>
      </g>
      <path class="cls-5" d="M24.03,20.39c-1.87-1.55-4.08-2.73-6.31-3.67-1.1-.48-2.24-.84-3.4-1.18-.68-1.53-.48-3.08-.01-4.75,1.01,1.91,2.73,3.58,5.07,4.82-4.43-3.35-6.55-8.08-3.68-12.88.77,1.64,1.81,3.17,3.14,4.39,1.61,1.54,3.39,2.69,4.87,4.14,3.14,2.79,5.02,6.91,4.07,11.14,2.2-5.69-1.25-10.74-5.61-14.21-1.62-1.33-3.17-2.66-4.3-4.41-.77-1.14-1.32-2.52-1.86-3.79-2.93,3.46-3.39,7.27-1.84,10.48-1.27,1.2-1.61,3.4-.66,4.81-1.4-.41-2.8-.81-4.12-1.37-2.64-1.12-4.93-2.93-7.06-4.82l-.68-.58s-.39.75-.39.75C-.9,13.52-.39,18.82,3.64,21.71c.72.51,1.47.95,2.24,1.32-.11.69-.11,1.33-.06,1.99.23,3.08,2.36,5.19,5,6.23-.01,0-.1.01-.1.01.27,1.43,1.12,2.67,2.22,3.56,2.18,1.69,5.01,1.74,7.6,1.38,1.12-.16,2.62-.55,3.73-.87-1.8.36-3.82.61-5.64.52-.31-.04-1.09-.13-1.39-.17-2.25-.36-4.44-1.78-5.01-4,.33.08.67.15,1,.2,1.38.24,2.78.31,4.17.29-1.38-.1-2.76-.28-4.09-.63-.4-.1-.79-.22-1.18-.35,0-.03-.01-.06-.01-.08,0,0-.14.01-.17.02-3.24-1.22-5.48-3.91-4.77-7.55,2.84,1.08,5.94,1.43,8.96,1.57C7.93,24.01-1.68,20.51,2.11,10.76c1.46,1.28,2.98,2.47,4.67,3.43,1.96,1.11,4.21,1.83,6.35,2.35,3.67.93,7.27,2.29,10.35,4.52,2.71,2.03,4.69,5.35,4.1,8.84,1.03-3.52-.86-7.25-3.56-9.51Z"/>
      <g>
        <path class="cls-1" d="M58.83,66.33c0,1.6-1.61,2.83-3.29,2.14-.35-.14-.64-.38-.87-.66-.73-.85-1.93-1.42-2.35-1.6-.03,0-.06-.02-.08-.03-.05-.02-.07-.03-.07-.03-.99-.41-1.62-1.48-1.37-2.66.19-.91.94-1.62,1.86-1.78,0,0,.02,0,.03,0,.92-.14,1.81-.43,2.61-.92.48-.29,1.07-.41,1.69-.29.91.18,1.63.92,1.81,1.83.05.26.06.51.02.76-.13.99-.11,1.99,0,2.99,0,.08.01.17.01.26Z"/>
        <ellipse class="cls-1" cx="58.18" cy="56.78" rx="2.13" ry="1.49" transform="translate(-22.57 66.17) rotate(-50.94)"/>
        <ellipse class="cls-1" cx="53.61" cy="58.55" rx="2.13" ry="1.49" transform="translate(-25.64 63.29) rotate(-50.94)"/>
        <ellipse class="cls-1" cx="61.93" cy="64.05" rx="2.13" ry="1.49" transform="translate(-26.83 71.78) rotate(-50.94)"/>
        <ellipse class="cls-1" cx="61.71" cy="59.36" rx="2.13" ry="1.49" transform="translate(-23.27 69.87) rotate(-50.94)"/>
      </g>
      <g>
        <path class="cls-3" d="M67.46,68.22c0-1.6,1.61-2.83,3.29-2.14.35.14.64.38.87.66.73.85,1.93,1.42,2.35,1.6.03,0,.06.02.08.03.05.02.07.03.07.03.99.41,1.62,1.48,1.37,2.66-.19.91-.94,1.62-1.86,1.78,0,0-.02,0-.03,0-.92.14-1.81.43-2.61.92-.48.29-1.07.41-1.69.29-.91-.18-1.63-.92-1.81-1.83-.05-.26-.06-.51-.02-.76.13-.99.11-1.99,0-2.99,0-.08-.01-.17-.01-.26Z"/>
        <ellipse class="cls-3" cx="68.12" cy="77.78" rx="2.13" ry="1.49" transform="translate(-35.2 81.66) rotate(-50.94)"/>
        <ellipse class="cls-3" cx="72.68" cy="76" rx="2.13" ry="1.49" transform="translate(-32.13 84.54) rotate(-50.94)"/>
        <ellipse class="cls-3" cx="64.37" cy="70.5" rx="2.13" ry="1.49" transform="translate(-30.94 76.05) rotate(-50.94)"/>
        <ellipse class="cls-3" cx="64.59" cy="75.2" rx="2.13" ry="1.49" transform="translate(-34.5 77.96) rotate(-50.94)"/>
      </g>
    </g>
  </g>
</svg>